<svg xmlns="http://www.w3.org/2000/svg" width="1000" height="600"><rect width="1000" height="600" x="0" y="0" fill="#FFFFFF" id="backgorund"/><g id="viz"><g transform="translate(0,0)"><g transform="translate(100,20)"><g class="bars"><rect id="undefined - navigo_smoggle" x="4.978682434920557" y="485.13143" height="74.86856999999998" width="144.18372877118358" fill="#1f77b4"/><rect id="undefined - toflit_national_export" x="150.15899073274736" y="28.131600000000017" height="531.8684" width="144.18372877118358" fill="#ff7f0e"/><rect id="undefined - navigo_smoggle" x="595.657280496069" y="558.7911" height="1.2088999999999714" width="144.18372877118358" fill="#1f77b4"/><rect id="undefined - toflit_national_export" x="740.8375887938957" y="448.31093999999996" height="111.68906000000004" width="144.18372877118358" fill="#ff7f0e"/><rect id="undefined - navigo_smoggle" x="300.31798146549477" y="533.48295" height="26.51705000000004" width="144.18372877118358" fill="#1f77b4"/><rect id="undefined - toflit_national_export" x="445.4982897633216" y="493.71672" height="66.28327999999999" width="144.18372877118358" fill="#ff7f0e"/></g><g id="xAxis" transform="translate(0,560)" fill="none" font-size="10" font-family="sans-serif" text-anchor="middle"><path class="domain" stroke="currentColor" d="M0.5,0.5H890.5"/><g class="tick" opacity="1" transform="translate(149.66070096942576,0)"><line stroke="currentColor" y2="6"/><text fill="currentColor" y="9" dy="0.71em">alcool</text></g><g class="tick" opacity="1" transform="translate(445,0)"><line stroke="currentColor" y2="6"/><text fill="currentColor" y="9" dy="0.71em">tabac</text></g><g class="tick" opacity="1" transform="translate(740.3392990305742,0)"><line stroke="currentColor" y2="6"/><text fill="currentColor" y="9" dy="0.71em">the</text></g></g><g id="yAxis" fill="none" font-size="10" font-family="sans-serif" text-anchor="end"><path class="domain" stroke="currentColor" d="M0.5,560.5V0.5"/><g class="tick" opacity="1" transform="translate(0,560.5)"><line stroke="currentColor" x2="-6"/><text fill="currentColor" x="-9" dy="0.32em">0</text></g><g class="tick" opacity="1" transform="translate(0,490.5)"><line stroke="currentColor" x2="-6"/><text fill="currentColor" x="-9" dy="0.32em">1,000,000</text></g><g class="tick" opacity="1" transform="translate(0,420.5)"><line stroke="currentColor" x2="-6"/><text fill="currentColor" x="-9" dy="0.32em">2,000,000</text></g><g class="tick" opacity="1" transform="translate(0,350.5)"><line stroke="currentColor" x2="-6"/><text fill="currentColor" x="-9" dy="0.32em">3,000,000</text></g><g class="tick" opacity="1" transform="translate(0,280.5)"><line stroke="currentColor" x2="-6"/><text fill="currentColor" x="-9" dy="0.32em">4,000,000</text></g><g class="tick" opacity="1" transform="translate(0,210.5)"><line stroke="currentColor" x2="-6"/><text fill="currentColor" x="-9" dy="0.32em">5,000,000</text></g><g class="tick" opacity="1" transform="translate(0,140.5)"><line stroke="currentColor" x2="-6"/><text fill="currentColor" x="-9" dy="0.32em">6,000,000</text></g><g class="tick" opacity="1" transform="translate(0,70.5)"><line stroke="currentColor" x2="-6"/><text fill="currentColor" x="-9" dy="0.32em">7,000,000</text></g><g class="tick" opacity="1" transform="translate(0,0.5)"><line stroke="currentColor" x2="-6"/><text fill="currentColor" x="-9" dy="0.32em">8,000,000</text></g></g><text y="556" x="890" text-anchor="end" style="font-family: Arial, sans-serif; font-size: 12px; fill: rgb(123, 123, 123); font-weight: bold;">Sets</text><text y="0" x="4" dominant-baseline="hanging" text-anchor="start" style="font-family: Arial, sans-serif; font-size: 12px; fill: rgb(123, 123, 123); font-weight: bold;">Value</text></g><text x="4" y="4" style="font-family: Arial, sans-serif; font-size: 12px; fill: black; font-weight: bold; dominant-baseline: hanging;"/></g><g id="grid"><rect x="0" y="0" width="1000" height="600" fill="none" stroke="#ccc"/></g></g></svg>