<svg xmlns="http://www.w3.org/2000/svg" width="805" height="600"><rect width="805" height="600" x="0" y="0" fill="#FFFFFF" id="backgorund"/><g id="viz"><g transform="translate(0,0)"><g transform="translate(50,20)"><g id="Smogglage per cent" fill="#c47f43"><rect x="124.99888293118853" y="464.598" width="123.00156389633602" height="65.40199999999999"/><rect x="620.9997765862377" y="529.841" width="123.00156389633602" height="0.15899999999999181"/><rect x="496.99955317247543" y="524.329" width="123.00156389633602" height="5.671000000000049"/><rect x="248.99910634495083" y="378.57899999999995" width="123.00156389633602" height="151.42100000000005"/><rect x="372.99932975871315" y="242.36899999999997" width="123.00156389633602" height="287.63100000000003"/><rect x="0.9986595174262334" y="462.21299999999997" width="123.00156389633602" height="67.78700000000003"/></g><g id="Exports per cent" fill="#355c76"><rect x="124.99888293118853" y="0" width="123.00156389633602" height="464.59799999999996"/><rect x="620.9997765862377" y="0" width="123.00156389633602" height="529.841"/><rect x="496.99955317247543" y="0" width="123.00156389633602" height="524.3290000000001"/><rect x="248.99910634495083" y="0" width="123.00156389633602" height="378.57900000000006"/><rect x="372.99932975871315" y="0" width="123.00156389633602" height="242.36900000000003"/><rect x="0.9986595174262334" y="0" width="123.00156389633602" height="462.2130000000001"/></g><g id="xAxis" transform="translate(0,530)" fill="none" font-size="10" font-family="sans-serif" text-anchor="middle"><path class="domain" stroke="currentColor" d="M0.5,0.5H745.5"/><g class="tick" opacity="1" transform="translate(62.499441465594245,0)"><line stroke="currentColor" y2="6"/><text fill="currentColor" y="9" dy="0.71em">Café</text></g><g class="tick" opacity="1" transform="translate(186.49966487935654,0)"><line stroke="currentColor" y2="6"/><text fill="currentColor" y="9" dy="0.71em">Eaux-de-vie, tafias, genièvre</text></g><g class="tick" opacity="1" transform="translate(310.49988829311883,0)"><line stroke="currentColor" y2="6"/><text fill="currentColor" y="9" dy="0.71em">Feuilles de tabac</text></g><g class="tick" opacity="1" transform="translate(434.50011170688117,0)"><line stroke="currentColor" y2="6"/><text fill="currentColor" y="9" dy="0.71em">Sucre brut</text></g><g class="tick" opacity="1" transform="translate(558.5003351206434,0)"><line stroke="currentColor" y2="6"/><text fill="currentColor" y="9" dy="0.71em">Thés</text></g><g class="tick" opacity="1" transform="translate(682.5005585344056,0)"><line stroke="currentColor" y2="6"/><text fill="currentColor" y="9" dy="0.71em">Vins</text></g></g><g id="yAxis" fill="none" font-size="10" font-family="sans-serif" text-anchor="end"><path class="domain" stroke="currentColor" d="M0.5,530.5V0.5"/><g class="tick" opacity="1" transform="translate(0,530.5)"><line stroke="currentColor" x2="-6"/><text fill="currentColor" x="-9" dy="0.32em">0</text></g><g class="tick" opacity="1" transform="translate(0,477.5)"><line stroke="currentColor" x2="-6"/><text fill="currentColor" x="-9" dy="0.32em">10</text></g><g class="tick" opacity="1" transform="translate(0,424.5)"><line stroke="currentColor" x2="-6"/><text fill="currentColor" x="-9" dy="0.32em">20</text></g><g class="tick" opacity="1" transform="translate(0,371.5)"><line stroke="currentColor" x2="-6"/><text fill="currentColor" x="-9" dy="0.32em">30</text></g><g class="tick" opacity="1" transform="translate(0,318.5)"><line stroke="currentColor" x2="-6"/><text fill="currentColor" x="-9" dy="0.32em">40</text></g><g class="tick" opacity="1" transform="translate(0,265.5)"><line stroke="currentColor" x2="-6"/><text fill="currentColor" x="-9" dy="0.32em">50</text></g><g class="tick" opacity="1" transform="translate(0,212.5)"><line stroke="currentColor" x2="-6"/><text fill="currentColor" x="-9" dy="0.32em">60</text></g><g class="tick" opacity="1" transform="translate(0,159.50000000000003)"><line stroke="currentColor" x2="-6"/><text fill="currentColor" x="-9" dy="0.32em">70</text></g><g class="tick" opacity="1" transform="translate(0,106.49999999999997)"><line stroke="currentColor" x2="-6"/><text fill="currentColor" x="-9" dy="0.32em">80</text></g><g class="tick" opacity="1" transform="translate(0,53.499999999999986)"><line stroke="currentColor" x2="-6"/><text fill="currentColor" x="-9" dy="0.32em">90</text></g><g class="tick" opacity="1" transform="translate(0,0.5)"><line stroke="currentColor" x2="-6"/><text fill="currentColor" x="-9" dy="0.32em">100</text></g></g><text y="526" x="745" text-anchor="end" style="font-family: Arial, sans-serif; font-size: 12px; fill: rgb(123, 123, 123); font-weight: bold;">produits</text></g><text x="4" y="4" style="font-family: Arial, sans-serif; font-size: 12px; fill: black; font-weight: bold; dominant-baseline: hanging;"/></g><g id="grid"><rect x="0" y="0" width="805" height="600" fill="none" stroke="#ccc"/></g></g></svg>