<svg xmlns="http://www.w3.org/2000/svg" width="805" height="600"><rect width="805" height="600" x="0" y="0" fill="#FFFFFF" id="backgorund"/><g transform="translate(50,100)" id="viz"><g fill="none" font-size="10" font-family="sans-serif" text-anchor="middle"><path class="domain" stroke="currentColor" d="M0.5,0.5H102.77272727272727"/><g class="tick" opacity="1" transform="translate(11.095160866134828,0)"><line stroke="currentColor" y2="-6"/><text fill="currentColor" y="-9" dy="3.4641016151377544" dx="3.4641016151377544" text-anchor="start" transform="rotate(-45)">[1-20]</text></g><g class="tick" opacity="1" transform="translate(31.11576225124923,0)"><line stroke="currentColor" y2="-6"/><text fill="currentColor" y="-9" dy="3.4641016151377544" dx="3.4641016151377544" text-anchor="start" transform="rotate(-45)">[21-50]</text></g><g class="tick" opacity="1" transform="translate(51.136363636363626,0)"><line stroke="currentColor" y2="-6"/><text fill="currentColor" y="-9" dy="3.4641016151377544" dx="3.4641016151377544" text-anchor="start" transform="rotate(-45)">[51-100]</text></g><g class="tick" opacity="1" transform="translate(71.15696502147803,0)"><line stroke="currentColor" y2="-6"/><text fill="currentColor" y="-9" dy="3.4641016151377544" dx="3.4641016151377544" text-anchor="start" transform="rotate(-45)">[101-200]</text></g><g class="tick" opacity="1" transform="translate(91.17756640659243,0)"><line stroke="currentColor" y2="-6"/><text fill="currentColor" y="-9" dy="3.4641016151377544" dx="3.4641016151377544" text-anchor="start" transform="rotate(-45)">[201-500]</text></g></g><g fill="none" font-size="10" font-family="sans-serif" text-anchor="end"><path class="domain" stroke="currentColor" d="M0.5,0.5V450.5"/><g class="tick" opacity="1" transform="translate(0,11.280080213903753)"><line stroke="currentColor" x2="-6"/><text fill="currentColor" x="-9" dy="0.32em">Douvres</text></g><g class="tick" opacity="1" transform="translate(0,31.63435828877006)"><line stroke="currentColor" x2="-6"/><text fill="currentColor" x="-9" dy="0.32em">Londres</text></g><g class="tick" opacity="1" transform="translate(0,51.98863636363637)"><line stroke="currentColor" x2="-6"/><text fill="currentColor" x="-9" dy="0.32em">Deal</text></g><g class="tick" opacity="1" transform="translate(0,72.34291443850267)"><line stroke="currentColor" x2="-6"/><text fill="currentColor" x="-9" dy="0.32em">Whistable</text></g><g class="tick" opacity="1" transform="translate(0,92.69719251336899)"><line stroke="currentColor" x2="-6"/><text fill="currentColor" x="-9" dy="0.32em">Newcastle</text></g><g class="tick" opacity="1" transform="translate(0,113.05147058823529)"><line stroke="currentColor" x2="-6"/><text fill="currentColor" x="-9" dy="0.32em">Faversham</text></g><g class="tick" opacity="1" transform="translate(0,133.4057486631016)"><line stroke="currentColor" x2="-6"/><text fill="currentColor" x="-9" dy="0.32em">Rochester</text></g><g class="tick" opacity="1" transform="translate(0,153.7600267379679)"><line stroke="currentColor" x2="-6"/><text fill="currentColor" x="-9" dy="0.32em">Poole</text></g><g class="tick" opacity="1" transform="translate(0,174.1143048128342)"><line stroke="currentColor" x2="-6"/><text fill="currentColor" x="-9" dy="0.32em">Chatham </text></g><g class="tick" opacity="1" transform="translate(0,194.4685828877005)"><line stroke="currentColor" x2="-6"/><text fill="currentColor" x="-9" dy="0.32em">Walmer</text></g><g class="tick" opacity="1" transform="translate(0,214.8228609625668)"><line stroke="currentColor" x2="-6"/><text fill="currentColor" x="-9" dy="0.32em">Sunderland</text></g><g class="tick" opacity="1" transform="translate(0,235.17713903743314)"><line stroke="currentColor" x2="-6"/><text fill="currentColor" x="-9" dy="0.32em">Padstow</text></g><g class="tick" opacity="1" transform="translate(0,255.53141711229944)"><line stroke="currentColor" x2="-6"/><text fill="currentColor" x="-9" dy="0.32em">Hasting</text></g><g class="tick" opacity="1" transform="translate(0,275.8856951871657)"><line stroke="currentColor" x2="-6"/><text fill="currentColor" x="-9" dy="0.32em">Yarmouth</text></g><g class="tick" opacity="1" transform="translate(0,296.23997326203204)"><line stroke="currentColor" x2="-6"/><text fill="currentColor" x="-9" dy="0.32em">Folkestone</text></g><g class="tick" opacity="1" transform="translate(0,316.59425133689837)"><line stroke="currentColor" x2="-6"/><text fill="currentColor" x="-9" dy="0.32em">Colchester</text></g><g class="tick" opacity="1" transform="translate(0,336.9485294117647)"><line stroke="currentColor" x2="-6"/><text fill="currentColor" x="-9" dy="0.32em">Chichester</text></g><g class="tick" opacity="1" transform="translate(0,357.302807486631)"><line stroke="currentColor" x2="-6"/><text fill="currentColor" x="-9" dy="0.32em">Teignmouth</text></g><g class="tick" opacity="1" transform="translate(0,377.65708556149724)"><line stroke="currentColor" x2="-6"/><text fill="currentColor" x="-9" dy="0.32em">Ramsgate</text></g><g class="tick" opacity="1" transform="translate(0,398.01136363636357)"><line stroke="currentColor" x2="-6"/><text fill="currentColor" x="-9" dy="0.32em">Margate</text></g><g class="tick" opacity="1" transform="translate(0,418.3656417112299)"><line stroke="currentColor" x2="-6"/><text fill="currentColor" x="-9" dy="0.32em">Rye</text></g><g class="tick" opacity="1" transform="translate(0,438.7199197860962)"><line stroke="currentColor" x2="-6"/><text fill="currentColor" x="-9" dy="0.32em">Dartmouth</text></g></g><text dx="-9" dy="-9" style="text-anchor: end; font-family: Arial, sans-serif; font-size: 12px; fill: rgb(123, 123, 123); font-weight: bold;">Port de destination</text><text x="78.68170001566673" y="78.68170001566673" dx="3.4641016151377544" dy="-3.4641016151377544" transform="rotate(-45)" style="text-anchor: start; font-family: Arial, sans-serif; font-size: 12px; fill: rgb(123, 123, 123); font-weight: bold;">Classe de tonnage</text><rect x="7.763988821627216" y="7.800150827413149" rx="0" ry="0" width="7.2660085056015316" height="7.2660085056015316" style="fill: rgb(204, 204, 204);"/><rect x="23.97505799055755" y="3.990618611229081" rx="0" ry="0" width="14.885072937969667" height="14.885072937969667" style="fill: rgb(204, 204, 204);"/><rect x="51.10927909425382" y="11.104238329810954" rx="0" ry="0" width="0.6578335008059198" height="0.6578335008059198" style="fill: rgb(204, 204, 204);"/><rect x="71.12988047936821" y="11.104238329810954" rx="0" ry="0" width="0.6578335008059198" height="0.6578335008059198" style="fill: rgb(204, 204, 204);"/><rect x="91.47939861488558" y="11.433155080213915" rx="0" ry="0" width="0" height="0" style="fill: rgb(204, 204, 204);"/><rect x="4.491934442472436" y="24.882374523124675" rx="0" ry="0" width="13.810117263911092" height="13.810117263911092" style="fill: rgb(204, 204, 204);"/><rect x="25.581754777595282" y="25.951593473133123" rx="0" ry="0" width="11.6716793638942" height="11.6716793638942" style="fill: rgb(204, 204, 204);"/><rect x="49.59274129920224" y="29.94197860962568" rx="0" ry="0" width="3.690909090909091" height="3.690909090909091" style="fill: rgb(204, 204, 204);"/><rect x="71.45879722977118" y="31.787433155080222" rx="0" ry="0" width="0" height="0" style="fill: rgb(204, 204, 204);"/><rect x="91.47939861488558" y="31.787433155080222" rx="0" ry="0" width="0" height="0" style="fill: rgb(204, 204, 204);"/><rect x="2.2184134191159366" y="42.96313157463449" rx="0" ry="0" width="18.35715931062409" height="18.35715931062409" style="fill: rgb(204, 204, 204);"/><rect x="30.470896252845627" y="51.19501302324977" rx="0" ry="0" width="1.8933964133935115" height="1.8933964133935115" style="fill: rgb(204, 204, 204);"/><rect x="51.43819584465678" y="52.14171122994653" rx="0" ry="0" width="0" height="0" style="fill: rgb(204, 204, 204);"/><rect x="71.45879722977118" y="52.14171122994653" rx="0" ry="0" width="0" height="0" style="fill: rgb(204, 204, 204);"/><rect x="91.47939861488558" y="52.14171122994653" rx="0" ry="0" width="0" height="0" style="fill: rgb(204, 204, 204);"/><rect x="2.1697203471552555" y="63.26871657754011" rx="0" ry="0" width="18.454545454545453" height="18.454545454545453" style="fill: rgb(204, 204, 204);"/><rect x="31.417594459542382" y="72.49598930481284" rx="0" ry="0" width="0" height="0" style="fill: rgb(204, 204, 204);"/><rect x="51.43819584465678" y="72.49598930481284" rx="0" ry="0" width="0" height="0" style="fill: rgb(204, 204, 204);"/><rect x="71.45879722977118" y="72.49598930481284" rx="0" ry="0" width="0" height="0" style="fill: rgb(204, 204, 204);"/><rect x="91.47939861488558" y="72.49598930481284" rx="0" ry="0" width="0" height="0" style="fill: rgb(204, 204, 204);"/><rect x="11.396993074427982" y="92.85026737967914" rx="0" ry="0" width="0" height="0" style="fill: rgb(204, 204, 204);"/><rect x="22.190321732269656" y="83.62299465240642" rx="0" ry="0" width="18.454545454545453" height="18.454545454545453" style="fill: rgb(204, 204, 204);"/><rect x="51.43819584465678" y="92.85026737967914" rx="0" ry="0" width="0" height="0" style="fill: rgb(204, 204, 204);"/><rect x="71.45879722977118" y="92.85026737967914" rx="0" ry="0" width="0" height="0" style="fill: rgb(204, 204, 204);"/><rect x="91.47939861488558" y="92.85026737967914" rx="0" ry="0" width="0" height="0" style="fill: rgb(204, 204, 204);"/><rect x="2.1697203471552555" y="103.97727272727272" rx="0" ry="0" width="18.454545454545453" height="18.454545454545453" style="fill: rgb(204, 204, 204);"/><rect x="31.417594459542382" y="113.20454545454544" rx="0" ry="0" width="0" height="0" style="fill: rgb(204, 204, 204);"/><rect x="51.43819584465678" y="113.20454545454544" rx="0" ry="0" width="0" height="0" style="fill: rgb(204, 204, 204);"/><rect x="71.45879722977118" y="113.20454545454544" rx="0" ry="0" width="0" height="0" style="fill: rgb(204, 204, 204);"/><rect x="91.47939861488558" y="113.20454545454544" rx="0" ry="0" width="0" height="0" style="fill: rgb(204, 204, 204);"/><rect x="2.1697203471552555" y="124.33155080213903" rx="0" ry="0" width="18.454545454545453" height="18.454545454545453" style="fill: rgb(204, 204, 204);"/><rect x="31.417594459542382" y="133.55882352941177" rx="0" ry="0" width="0" height="0" style="fill: rgb(204, 204, 204);"/><rect x="51.43819584465678" y="133.55882352941177" rx="0" ry="0" width="0" height="0" style="fill: rgb(204, 204, 204);"/><rect x="71.45879722977118" y="133.55882352941177" rx="0" ry="0" width="0" height="0" style="fill: rgb(204, 204, 204);"/><rect x="91.47939861488558" y="133.55882352941177" rx="0" ry="0" width="0" height="0" style="fill: rgb(204, 204, 204);"/><rect x="6.783356710791619" y="149.29946524064172" rx="0" ry="0" width="9.227272727272727" height="9.227272727272727" style="fill: rgb(204, 204, 204);"/><rect x="23.426541870076882" y="145.9220490148126" rx="0" ry="0" width="15.982105178931002" height="15.982105178931002" style="fill: rgb(204, 204, 204);"/><rect x="51.43819584465678" y="153.91310160427807" rx="0" ry="0" width="0" height="0" style="fill: rgb(204, 204, 204);"/><rect x="71.45879722977118" y="153.91310160427807" rx="0" ry="0" width="0" height="0" style="fill: rgb(204, 204, 204);"/><rect x="91.47939861488558" y="153.91310160427807" rx="0" ry="0" width="0" height="0" style="fill: rgb(204, 204, 204);"/><rect x="2.1697203471552555" y="165.04010695187165" rx="0" ry="0" width="18.454545454545453" height="18.454545454545453" style="fill: rgb(204, 204, 204);"/><rect x="31.417594459542382" y="174.26737967914437" rx="0" ry="0" width="0" height="0" style="fill: rgb(204, 204, 204);"/><rect x="51.43819584465678" y="174.26737967914437" rx="0" ry="0" width="0" height="0" style="fill: rgb(204, 204, 204);"/><rect x="71.45879722977118" y="174.26737967914437" rx="0" ry="0" width="0" height="0" style="fill: rgb(204, 204, 204);"/><rect x="91.47939861488558" y="174.26737967914437" rx="0" ry="0" width="0" height="0" style="fill: rgb(204, 204, 204);"/><rect x="2.1697203471552555" y="185.39438502673795" rx="0" ry="0" width="18.454545454545453" height="18.454545454545453" style="fill: rgb(204, 204, 204);"/><rect x="31.417594459542382" y="194.62165775401067" rx="0" ry="0" width="0" height="0" style="fill: rgb(204, 204, 204);"/><rect x="51.43819584465678" y="194.62165775401067" rx="0" ry="0" width="0" height="0" style="fill: rgb(204, 204, 204);"/><rect x="71.45879722977118" y="194.62165775401067" rx="0" ry="0" width="0" height="0" style="fill: rgb(204, 204, 204);"/><rect x="91.47939861488558" y="194.62165775401067" rx="0" ry="0" width="0" height="0" style="fill: rgb(204, 204, 204);"/><rect x="11.396993074427982" y="214.97593582887697" rx="0" ry="0" width="0" height="0" style="fill: rgb(204, 204, 204);"/><rect x="31.417594459542382" y="214.97593582887697" rx="0" ry="0" width="0" height="0" style="fill: rgb(204, 204, 204);"/><rect x="51.43819584465678" y="214.97593582887697" rx="0" ry="0" width="0" height="0" style="fill: rgb(204, 204, 204);"/><rect x="71.45879722977118" y="214.97593582887697" rx="0" ry="0" width="0" height="0" style="fill: rgb(204, 204, 204);"/><rect x="82.25212588761286" y="205.74866310160425" rx="0" ry="0" width="18.454545454545453" height="18.454545454545453" style="fill: rgb(204, 204, 204);"/><rect x="11.396993074427982" y="235.3302139037433" rx="0" ry="0" width="0" height="0" style="fill: rgb(204, 204, 204);"/><rect x="22.190321732269656" y="226.10294117647058" rx="0" ry="0" width="18.454545454545453" height="18.454545454545453" style="fill: rgb(204, 204, 204);"/><rect x="51.43819584465678" y="235.3302139037433" rx="0" ry="0" width="0" height="0" style="fill: rgb(204, 204, 204);"/><rect x="71.45879722977118" y="235.3302139037433" rx="0" ry="0" width="0" height="0" style="fill: rgb(204, 204, 204);"/><rect x="91.47939861488558" y="235.3302139037433" rx="0" ry="0" width="0" height="0" style="fill: rgb(204, 204, 204);"/><rect x="2.1697203471552555" y="246.45721925133688" rx="0" ry="0" width="18.454545454545453" height="18.454545454545453" style="fill: rgb(204, 204, 204);"/><rect x="31.417594459542382" y="255.6844919786096" rx="0" ry="0" width="0" height="0" style="fill: rgb(204, 204, 204);"/><rect x="51.43819584465678" y="255.6844919786096" rx="0" ry="0" width="0" height="0" style="fill: rgb(204, 204, 204);"/><rect x="71.45879722977118" y="255.6844919786096" rx="0" ry="0" width="0" height="0" style="fill: rgb(204, 204, 204);"/><rect x="91.47939861488558" y="255.6844919786096" rx="0" ry="0" width="0" height="0" style="fill: rgb(204, 204, 204);"/><rect x="11.396993074427982" y="276.0387700534759" rx="0" ry="0" width="0" height="0" style="fill: rgb(204, 204, 204);"/><rect x="31.417594459542382" y="276.0387700534759" rx="0" ry="0" width="0" height="0" style="fill: rgb(204, 204, 204);"/><rect x="42.210923117384056" y="266.81149732620315" rx="0" ry="0" width="18.454545454545453" height="18.454545454545453" style="fill: rgb(204, 204, 204);"/><rect x="71.45879722977118" y="276.0387700534759" rx="0" ry="0" width="0" height="0" style="fill: rgb(204, 204, 204);"/><rect x="91.47939861488558" y="276.0387700534759" rx="0" ry="0" width="0" height="0" style="fill: rgb(204, 204, 204);"/><rect x="2.1697203471552555" y="287.1657754010695" rx="0" ry="0" width="18.454545454545453" height="18.454545454545453" style="fill: rgb(204, 204, 204);"/><rect x="31.417594459542382" y="296.39304812834223" rx="0" ry="0" width="0" height="0" style="fill: rgb(204, 204, 204);"/><rect x="51.43819584465678" y="296.39304812834223" rx="0" ry="0" width="0" height="0" style="fill: rgb(204, 204, 204);"/><rect x="71.45879722977118" y="296.39304812834223" rx="0" ry="0" width="0" height="0" style="fill: rgb(204, 204, 204);"/><rect x="91.47939861488558" y="296.39304812834223" rx="0" ry="0" width="0" height="0" style="fill: rgb(204, 204, 204);"/><rect x="2.1697203471552555" y="307.5200534759358" rx="0" ry="0" width="18.454545454545453" height="18.454545454545453" style="fill: rgb(204, 204, 204);"/><rect x="31.417594459542382" y="316.74732620320856" rx="0" ry="0" width="0" height="0" style="fill: rgb(204, 204, 204);"/><rect x="51.43819584465678" y="316.74732620320856" rx="0" ry="0" width="0" height="0" style="fill: rgb(204, 204, 204);"/><rect x="71.45879722977118" y="316.74732620320856" rx="0" ry="0" width="0" height="0" style="fill: rgb(204, 204, 204);"/><rect x="91.47939861488558" y="316.74732620320856" rx="0" ry="0" width="0" height="0" style="fill: rgb(204, 204, 204);"/><rect x="11.396993074427982" y="337.1016042780749" rx="0" ry="0" width="0" height="0" style="fill: rgb(204, 204, 204);"/><rect x="22.190321732269656" y="327.87433155080214" rx="0" ry="0" width="18.454545454545453" height="18.454545454545453" style="fill: rgb(204, 204, 204);"/><rect x="51.43819584465678" y="337.1016042780749" rx="0" ry="0" width="0" height="0" style="fill: rgb(204, 204, 204);"/><rect x="71.45879722977118" y="337.1016042780749" rx="0" ry="0" width="0" height="0" style="fill: rgb(204, 204, 204);"/><rect x="91.47939861488558" y="337.1016042780749" rx="0" ry="0" width="0" height="0" style="fill: rgb(204, 204, 204);"/><rect x="2.1697203471552555" y="348.22860962566847" rx="0" ry="0" width="18.454545454545453" height="18.454545454545453" style="fill: rgb(204, 204, 204);"/><rect x="31.417594459542382" y="357.4558823529412" rx="0" ry="0" width="0" height="0" style="fill: rgb(204, 204, 204);"/><rect x="51.43819584465678" y="357.4558823529412" rx="0" ry="0" width="0" height="0" style="fill: rgb(204, 204, 204);"/><rect x="71.45879722977118" y="357.4558823529412" rx="0" ry="0" width="0" height="0" style="fill: rgb(204, 204, 204);"/><rect x="91.47939861488558" y="357.4558823529412" rx="0" ry="0" width="0" height="0" style="fill: rgb(204, 204, 204);"/><rect x="2.1697203471552555" y="368.5828877005347" rx="0" ry="0" width="18.454545454545453" height="18.454545454545453" style="fill: rgb(204, 204, 204);"/><rect x="31.417594459542382" y="377.81016042780743" rx="0" ry="0" width="0" height="0" style="fill: rgb(204, 204, 204);"/><rect x="51.43819584465678" y="377.81016042780743" rx="0" ry="0" width="0" height="0" style="fill: rgb(204, 204, 204);"/><rect x="71.45879722977118" y="377.81016042780743" rx="0" ry="0" width="0" height="0" style="fill: rgb(204, 204, 204);"/><rect x="91.47939861488558" y="377.81016042780743" rx="0" ry="0" width="0" height="0" style="fill: rgb(204, 204, 204);"/><rect x="2.1697203471552555" y="388.937165775401" rx="0" ry="0" width="18.454545454545453" height="18.454545454545453" style="fill: rgb(204, 204, 204);"/><rect x="31.417594459542382" y="398.16443850267376" rx="0" ry="0" width="0" height="0" style="fill: rgb(204, 204, 204);"/><rect x="51.43819584465678" y="398.16443850267376" rx="0" ry="0" width="0" height="0" style="fill: rgb(204, 204, 204);"/><rect x="71.45879722977118" y="398.16443850267376" rx="0" ry="0" width="0" height="0" style="fill: rgb(204, 204, 204);"/><rect x="91.47939861488558" y="398.16443850267376" rx="0" ry="0" width="0" height="0" style="fill: rgb(204, 204, 204);"/><rect x="2.1697203471552555" y="409.29144385026734" rx="0" ry="0" width="18.454545454545453" height="18.454545454545453" style="fill: rgb(204, 204, 204);"/><rect x="31.417594459542382" y="418.5187165775401" rx="0" ry="0" width="0" height="0" style="fill: rgb(204, 204, 204);"/><rect x="51.43819584465678" y="418.5187165775401" rx="0" ry="0" width="0" height="0" style="fill: rgb(204, 204, 204);"/><rect x="71.45879722977118" y="418.5187165775401" rx="0" ry="0" width="0" height="0" style="fill: rgb(204, 204, 204);"/><rect x="91.47939861488558" y="418.5187165775401" rx="0" ry="0" width="0" height="0" style="fill: rgb(204, 204, 204);"/><rect x="11.396993074427982" y="438.8729946524064" rx="0" ry="0" width="0" height="0" style="fill: rgb(204, 204, 204);"/><rect x="22.190321732269656" y="429.64572192513367" rx="0" ry="0" width="18.454545454545453" height="18.454545454545453" style="fill: rgb(204, 204, 204);"/><rect x="51.43819584465678" y="438.8729946524064" rx="0" ry="0" width="0" height="0" style="fill: rgb(204, 204, 204);"/><rect x="71.45879722977118" y="438.8729946524064" rx="0" ry="0" width="0" height="0" style="fill: rgb(204, 204, 204);"/><rect x="91.47939861488558" y="438.8729946524064" rx="0" ry="0" width="0" height="0" style="fill: rgb(204, 204, 204);"/><g id="labels"><g transform="translate(11.396993074427982,11.433155080213915)"><text x="0" y="0" text-anchor="middle" dominant-baseline="text-before-edge" transform="translate(0,0)"/></g><g transform="translate(31.417594459542382,11.433155080213915)"><text x="0" y="0" text-anchor="middle" dominant-baseline="text-before-edge" transform="translate(0,0)"/></g><g transform="translate(51.43819584465678,11.433155080213915)"><text x="0" y="0" text-anchor="middle" dominant-baseline="text-before-edge" transform="translate(0,0)"/></g><g transform="translate(71.45879722977118,11.433155080213915)"><text x="0" y="0" text-anchor="middle" dominant-baseline="text-before-edge" transform="translate(0,0)"/></g><g transform="translate(91.47939861488558,11.433155080213915)"><text x="0" y="0" text-anchor="middle" dominant-baseline="text-before-edge" transform="translate(0,0)"/></g><g transform="translate(11.396993074427982,31.787433155080222)"><text x="0" y="0" text-anchor="middle" dominant-baseline="text-before-edge" transform="translate(0,0)"/></g><g transform="translate(31.417594459542382,31.787433155080222)"><text x="0" y="0" text-anchor="middle" dominant-baseline="text-before-edge" transform="translate(0,0)"/></g><g transform="translate(51.43819584465678,31.787433155080222)"><text x="0" y="0" text-anchor="middle" dominant-baseline="text-before-edge" transform="translate(0,0)"/></g><g transform="translate(71.45879722977118,31.787433155080222)"><text x="0" y="0" text-anchor="middle" dominant-baseline="text-before-edge" transform="translate(0,0)"/></g><g transform="translate(91.47939861488558,31.787433155080222)"><text x="0" y="0" text-anchor="middle" dominant-baseline="text-before-edge" transform="translate(0,0)"/></g><g transform="translate(11.396993074427982,52.14171122994653)"><text x="0" y="0" text-anchor="middle" dominant-baseline="text-before-edge" transform="translate(0,0)"/></g><g transform="translate(31.417594459542382,52.14171122994653)"><text x="0" y="0" text-anchor="middle" dominant-baseline="text-before-edge" transform="translate(0,0)"/></g><g transform="translate(51.43819584465678,52.14171122994653)"><text x="0" y="0" text-anchor="middle" dominant-baseline="text-before-edge" transform="translate(0,0)"/></g><g transform="translate(71.45879722977118,52.14171122994653)"><text x="0" y="0" text-anchor="middle" dominant-baseline="text-before-edge" transform="translate(0,0)"/></g><g transform="translate(91.47939861488558,52.14171122994653)"><text x="0" y="0" text-anchor="middle" dominant-baseline="text-before-edge" transform="translate(0,0)"/></g><g transform="translate(11.396993074427982,72.49598930481284)"><text x="0" y="0" text-anchor="middle" dominant-baseline="text-before-edge" transform="translate(0,0)"/></g><g transform="translate(31.417594459542382,72.49598930481284)"><text x="0" y="0" text-anchor="middle" dominant-baseline="text-before-edge" transform="translate(0,0)"/></g><g transform="translate(51.43819584465678,72.49598930481284)"><text x="0" y="0" text-anchor="middle" dominant-baseline="text-before-edge" transform="translate(0,0)"/></g><g transform="translate(71.45879722977118,72.49598930481284)"><text x="0" y="0" text-anchor="middle" dominant-baseline="text-before-edge" transform="translate(0,0)"/></g><g transform="translate(91.47939861488558,72.49598930481284)"><text x="0" y="0" text-anchor="middle" dominant-baseline="text-before-edge" transform="translate(0,0)"/></g><g transform="translate(11.396993074427982,92.85026737967914)"><text x="0" y="0" text-anchor="middle" dominant-baseline="text-before-edge" transform="translate(0,0)"/></g><g transform="translate(31.417594459542382,92.85026737967914)"><text x="0" y="0" text-anchor="middle" dominant-baseline="text-before-edge" transform="translate(0,0)"/></g><g transform="translate(51.43819584465678,92.85026737967914)"><text x="0" y="0" text-anchor="middle" dominant-baseline="text-before-edge" transform="translate(0,0)"/></g><g transform="translate(71.45879722977118,92.85026737967914)"><text x="0" y="0" text-anchor="middle" dominant-baseline="text-before-edge" transform="translate(0,0)"/></g><g transform="translate(91.47939861488558,92.85026737967914)"><text x="0" y="0" text-anchor="middle" dominant-baseline="text-before-edge" transform="translate(0,0)"/></g><g transform="translate(11.396993074427982,113.20454545454544)"><text x="0" y="0" text-anchor="middle" dominant-baseline="text-before-edge" transform="translate(0,0)"/></g><g transform="translate(31.417594459542382,113.20454545454544)"><text x="0" y="0" text-anchor="middle" dominant-baseline="text-before-edge" transform="translate(0,0)"/></g><g transform="translate(51.43819584465678,113.20454545454544)"><text x="0" y="0" text-anchor="middle" dominant-baseline="text-before-edge" transform="translate(0,0)"/></g><g transform="translate(71.45879722977118,113.20454545454544)"><text x="0" y="0" text-anchor="middle" dominant-baseline="text-before-edge" transform="translate(0,0)"/></g><g transform="translate(91.47939861488558,113.20454545454544)"><text x="0" y="0" text-anchor="middle" dominant-baseline="text-before-edge" transform="translate(0,0)"/></g><g transform="translate(11.396993074427982,133.55882352941177)"><text x="0" y="0" text-anchor="middle" dominant-baseline="text-before-edge" transform="translate(0,0)"/></g><g transform="translate(31.417594459542382,133.55882352941177)"><text x="0" y="0" text-anchor="middle" dominant-baseline="text-before-edge" transform="translate(0,0)"/></g><g transform="translate(51.43819584465678,133.55882352941177)"><text x="0" y="0" text-anchor="middle" dominant-baseline="text-before-edge" transform="translate(0,0)"/></g><g transform="translate(71.45879722977118,133.55882352941177)"><text x="0" y="0" text-anchor="middle" dominant-baseline="text-before-edge" transform="translate(0,0)"/></g><g transform="translate(91.47939861488558,133.55882352941177)"><text x="0" y="0" text-anchor="middle" dominant-baseline="text-before-edge" transform="translate(0,0)"/></g><g transform="translate(11.396993074427982,153.91310160427807)"><text x="0" y="0" text-anchor="middle" dominant-baseline="text-before-edge" transform="translate(0,0)"/></g><g transform="translate(31.417594459542382,153.91310160427807)"><text x="0" y="0" text-anchor="middle" dominant-baseline="text-before-edge" transform="translate(0,0)"/></g><g transform="translate(51.43819584465678,153.91310160427807)"><text x="0" y="0" text-anchor="middle" dominant-baseline="text-before-edge" transform="translate(0,0)"/></g><g transform="translate(71.45879722977118,153.91310160427807)"><text x="0" y="0" text-anchor="middle" dominant-baseline="text-before-edge" transform="translate(0,0)"/></g><g transform="translate(91.47939861488558,153.91310160427807)"><text x="0" y="0" text-anchor="middle" dominant-baseline="text-before-edge" transform="translate(0,0)"/></g><g transform="translate(11.396993074427982,174.26737967914437)"><text x="0" y="0" text-anchor="middle" dominant-baseline="text-before-edge" transform="translate(0,0)"/></g><g transform="translate(31.417594459542382,174.26737967914437)"><text x="0" y="0" text-anchor="middle" dominant-baseline="text-before-edge" transform="translate(0,0)"/></g><g transform="translate(51.43819584465678,174.26737967914437)"><text x="0" y="0" text-anchor="middle" dominant-baseline="text-before-edge" transform="translate(0,0)"/></g><g transform="translate(71.45879722977118,174.26737967914437)"><text x="0" y="0" text-anchor="middle" dominant-baseline="text-before-edge" transform="translate(0,0)"/></g><g transform="translate(91.47939861488558,174.26737967914437)"><text x="0" y="0" text-anchor="middle" dominant-baseline="text-before-edge" transform="translate(0,0)"/></g><g transform="translate(11.396993074427982,194.62165775401067)"><text x="0" y="0" text-anchor="middle" dominant-baseline="text-before-edge" transform="translate(0,0)"/></g><g transform="translate(31.417594459542382,194.62165775401067)"><text x="0" y="0" text-anchor="middle" dominant-baseline="text-before-edge" transform="translate(0,0)"/></g><g transform="translate(51.43819584465678,194.62165775401067)"><text x="0" y="0" text-anchor="middle" dominant-baseline="text-before-edge" transform="translate(0,0)"/></g><g transform="translate(71.45879722977118,194.62165775401067)"><text x="0" y="0" text-anchor="middle" dominant-baseline="text-before-edge" transform="translate(0,0)"/></g><g transform="translate(91.47939861488558,194.62165775401067)"><text x="0" y="0" text-anchor="middle" dominant-baseline="text-before-edge" transform="translate(0,0)"/></g><g transform="translate(11.396993074427982,214.97593582887697)"><text x="0" y="0" text-anchor="middle" dominant-baseline="text-before-edge" transform="translate(0,0)"/></g><g transform="translate(31.417594459542382,214.97593582887697)"><text x="0" y="0" text-anchor="middle" dominant-baseline="text-before-edge" transform="translate(0,0)"/></g><g transform="translate(51.43819584465678,214.97593582887697)"><text x="0" y="0" text-anchor="middle" dominant-baseline="text-before-edge" transform="translate(0,0)"/></g><g transform="translate(71.45879722977118,214.97593582887697)"><text x="0" y="0" text-anchor="middle" dominant-baseline="text-before-edge" transform="translate(0,0)"/></g><g transform="translate(91.47939861488558,214.97593582887697)"><text x="0" y="0" text-anchor="middle" dominant-baseline="text-before-edge" transform="translate(0,0)"/></g><g transform="translate(11.396993074427982,235.3302139037433)"><text x="0" y="0" text-anchor="middle" dominant-baseline="text-before-edge" transform="translate(0,0)"/></g><g transform="translate(31.417594459542382,235.3302139037433)"><text x="0" y="0" text-anchor="middle" dominant-baseline="text-before-edge" transform="translate(0,0)"/></g><g transform="translate(51.43819584465678,235.3302139037433)"><text x="0" y="0" text-anchor="middle" dominant-baseline="text-before-edge" transform="translate(0,0)"/></g><g transform="translate(71.45879722977118,235.3302139037433)"><text x="0" y="0" text-anchor="middle" dominant-baseline="text-before-edge" transform="translate(0,0)"/></g><g transform="translate(91.47939861488558,235.3302139037433)"><text x="0" y="0" text-anchor="middle" dominant-baseline="text-before-edge" transform="translate(0,0)"/></g><g transform="translate(11.396993074427982,255.6844919786096)"><text x="0" y="0" text-anchor="middle" dominant-baseline="text-before-edge" transform="translate(0,0)"/></g><g transform="translate(31.417594459542382,255.6844919786096)"><text x="0" y="0" text-anchor="middle" dominant-baseline="text-before-edge" transform="translate(0,0)"/></g><g transform="translate(51.43819584465678,255.6844919786096)"><text x="0" y="0" text-anchor="middle" dominant-baseline="text-before-edge" transform="translate(0,0)"/></g><g transform="translate(71.45879722977118,255.6844919786096)"><text x="0" y="0" text-anchor="middle" dominant-baseline="text-before-edge" transform="translate(0,0)"/></g><g transform="translate(91.47939861488558,255.6844919786096)"><text x="0" y="0" text-anchor="middle" dominant-baseline="text-before-edge" transform="translate(0,0)"/></g><g transform="translate(11.396993074427982,276.0387700534759)"><text x="0" y="0" text-anchor="middle" dominant-baseline="text-before-edge" transform="translate(0,0)"/></g><g transform="translate(31.417594459542382,276.0387700534759)"><text x="0" y="0" text-anchor="middle" dominant-baseline="text-before-edge" transform="translate(0,0)"/></g><g transform="translate(51.43819584465678,276.0387700534759)"><text x="0" y="0" text-anchor="middle" dominant-baseline="text-before-edge" transform="translate(0,0)"/></g><g transform="translate(71.45879722977118,276.0387700534759)"><text x="0" y="0" text-anchor="middle" dominant-baseline="text-before-edge" transform="translate(0,0)"/></g><g transform="translate(91.47939861488558,276.0387700534759)"><text x="0" y="0" text-anchor="middle" dominant-baseline="text-before-edge" transform="translate(0,0)"/></g><g transform="translate(11.396993074427982,296.39304812834223)"><text x="0" y="0" text-anchor="middle" dominant-baseline="text-before-edge" transform="translate(0,0)"/></g><g transform="translate(31.417594459542382,296.39304812834223)"><text x="0" y="0" text-anchor="middle" dominant-baseline="text-before-edge" transform="translate(0,0)"/></g><g transform="translate(51.43819584465678,296.39304812834223)"><text x="0" y="0" text-anchor="middle" dominant-baseline="text-before-edge" transform="translate(0,0)"/></g><g transform="translate(71.45879722977118,296.39304812834223)"><text x="0" y="0" text-anchor="middle" dominant-baseline="text-before-edge" transform="translate(0,0)"/></g><g transform="translate(91.47939861488558,296.39304812834223)"><text x="0" y="0" text-anchor="middle" dominant-baseline="text-before-edge" transform="translate(0,0)"/></g><g transform="translate(11.396993074427982,316.74732620320856)"><text x="0" y="0" text-anchor="middle" dominant-baseline="text-before-edge" transform="translate(0,0)"/></g><g transform="translate(31.417594459542382,316.74732620320856)"><text x="0" y="0" text-anchor="middle" dominant-baseline="text-before-edge" transform="translate(0,0)"/></g><g transform="translate(51.43819584465678,316.74732620320856)"><text x="0" y="0" text-anchor="middle" dominant-baseline="text-before-edge" transform="translate(0,0)"/></g><g transform="translate(71.45879722977118,316.74732620320856)"><text x="0" y="0" text-anchor="middle" dominant-baseline="text-before-edge" transform="translate(0,0)"/></g><g transform="translate(91.47939861488558,316.74732620320856)"><text x="0" y="0" text-anchor="middle" dominant-baseline="text-before-edge" transform="translate(0,0)"/></g><g transform="translate(11.396993074427982,337.1016042780749)"><text x="0" y="0" text-anchor="middle" dominant-baseline="text-before-edge" transform="translate(0,0)"/></g><g transform="translate(31.417594459542382,337.1016042780749)"><text x="0" y="0" text-anchor="middle" dominant-baseline="text-before-edge" transform="translate(0,0)"/></g><g transform="translate(51.43819584465678,337.1016042780749)"><text x="0" y="0" text-anchor="middle" dominant-baseline="text-before-edge" transform="translate(0,0)"/></g><g transform="translate(71.45879722977118,337.1016042780749)"><text x="0" y="0" text-anchor="middle" dominant-baseline="text-before-edge" transform="translate(0,0)"/></g><g transform="translate(91.47939861488558,337.1016042780749)"><text x="0" y="0" text-anchor="middle" dominant-baseline="text-before-edge" transform="translate(0,0)"/></g><g transform="translate(11.396993074427982,357.4558823529412)"><text x="0" y="0" text-anchor="middle" dominant-baseline="text-before-edge" transform="translate(0,0)"/></g><g transform="translate(31.417594459542382,357.4558823529412)"><text x="0" y="0" text-anchor="middle" dominant-baseline="text-before-edge" transform="translate(0,0)"/></g><g transform="translate(51.43819584465678,357.4558823529412)"><text x="0" y="0" text-anchor="middle" dominant-baseline="text-before-edge" transform="translate(0,0)"/></g><g transform="translate(71.45879722977118,357.4558823529412)"><text x="0" y="0" text-anchor="middle" dominant-baseline="text-before-edge" transform="translate(0,0)"/></g><g transform="translate(91.47939861488558,357.4558823529412)"><text x="0" y="0" text-anchor="middle" dominant-baseline="text-before-edge" transform="translate(0,0)"/></g><g transform="translate(11.396993074427982,377.81016042780743)"><text x="0" y="0" text-anchor="middle" dominant-baseline="text-before-edge" transform="translate(0,0)"/></g><g transform="translate(31.417594459542382,377.81016042780743)"><text x="0" y="0" text-anchor="middle" dominant-baseline="text-before-edge" transform="translate(0,0)"/></g><g transform="translate(51.43819584465678,377.81016042780743)"><text x="0" y="0" text-anchor="middle" dominant-baseline="text-before-edge" transform="translate(0,0)"/></g><g transform="translate(71.45879722977118,377.81016042780743)"><text x="0" y="0" text-anchor="middle" dominant-baseline="text-before-edge" transform="translate(0,0)"/></g><g transform="translate(91.47939861488558,377.81016042780743)"><text x="0" y="0" text-anchor="middle" dominant-baseline="text-before-edge" transform="translate(0,0)"/></g><g transform="translate(11.396993074427982,398.16443850267376)"><text x="0" y="0" text-anchor="middle" dominant-baseline="text-before-edge" transform="translate(0,0)"/></g><g transform="translate(31.417594459542382,398.16443850267376)"><text x="0" y="0" text-anchor="middle" dominant-baseline="text-before-edge" transform="translate(0,0)"/></g><g transform="translate(51.43819584465678,398.16443850267376)"><text x="0" y="0" text-anchor="middle" dominant-baseline="text-before-edge" transform="translate(0,0)"/></g><g transform="translate(71.45879722977118,398.16443850267376)"><text x="0" y="0" text-anchor="middle" dominant-baseline="text-before-edge" transform="translate(0,0)"/></g><g transform="translate(91.47939861488558,398.16443850267376)"><text x="0" y="0" text-anchor="middle" dominant-baseline="text-before-edge" transform="translate(0,0)"/></g><g transform="translate(11.396993074427982,418.5187165775401)"><text x="0" y="0" text-anchor="middle" dominant-baseline="text-before-edge" transform="translate(0,0)"/></g><g transform="translate(31.417594459542382,418.5187165775401)"><text x="0" y="0" text-anchor="middle" dominant-baseline="text-before-edge" transform="translate(0,0)"/></g><g transform="translate(51.43819584465678,418.5187165775401)"><text x="0" y="0" text-anchor="middle" dominant-baseline="text-before-edge" transform="translate(0,0)"/></g><g transform="translate(71.45879722977118,418.5187165775401)"><text x="0" y="0" text-anchor="middle" dominant-baseline="text-before-edge" transform="translate(0,0)"/></g><g transform="translate(91.47939861488558,418.5187165775401)"><text x="0" y="0" text-anchor="middle" dominant-baseline="text-before-edge" transform="translate(0,0)"/></g><g transform="translate(11.396993074427982,438.8729946524064)"><text x="0" y="0" text-anchor="middle" dominant-baseline="text-before-edge" transform="translate(0,0)"/></g><g transform="translate(31.417594459542382,438.8729946524064)"><text x="0" y="0" text-anchor="middle" dominant-baseline="text-before-edge" transform="translate(0,0)"/></g><g transform="translate(51.43819584465678,438.8729946524064)"><text x="0" y="0" text-anchor="middle" dominant-baseline="text-before-edge" transform="translate(0,0)"/></g><g transform="translate(71.45879722977118,438.8729946524064)"><text x="0" y="0" text-anchor="middle" dominant-baseline="text-before-edge" transform="translate(0,0)"/></g><g transform="translate(91.47939861488558,438.8729946524064)"><text x="0" y="0" text-anchor="middle" dominant-baseline="text-before-edge" transform="translate(0,0)"/></g></g></g></svg>