<svg xmlns="http://www.w3.org/2000/svg" width="1070" height="800"><rect width="1070" height="800" x="0" y="0" fill="#FFFFFF" id="backgorund"/><g id="viz"><g transform="translate(0,0)"><g transform="translate(70,20)"><g id="France" fill="#4a90e2"><rect x="17.89473684210526" y="355.36771125" width="58.1578947368421" height="3.533433750000029"/><rect x="93.94736842105263" y="358.831623375" width="58.1578947368421" height="0.9329771249999794"/></g><g id="Étranger" fill="#50e3c2"><rect x="17.89473684210526" y="358.901145" width="58.1578947368421" height="1.0988550000000146"/><rect x="93.94736842105263" y="359.76460050000003" width="58.1578947368421" height="0.23539949999997134"/></g><g id="xAxis" transform="translate(0,360)" fill="none" font-size="10" font-family="sans-serif" text-anchor="middle"><path class="domain" stroke="currentColor" d="M0.5,0.5H170.5"/><g class="tick" opacity="1" transform="translate(46.973684210526315,0)"><line stroke="currentColor" y2="6"/><text fill="currentColor" y="9" dy="0.71em">Dunkerque</text></g><g class="tick" opacity="1" transform="translate(123.02631578947368,0)"><line stroke="currentColor" y2="6"/><text fill="currentColor" y="9" dy="0.71em">Autres ports francs</text></g></g><g id="yAxis" fill="none" font-size="10" font-family="sans-serif" text-anchor="end"><path class="domain" stroke="currentColor" d="M0.5,360.5V0.5"/><g class="tick" opacity="1" transform="translate(0,360.5)"><line stroke="currentColor" x2="-6"/><text fill="currentColor" x="-9" dy="0.32em">0</text></g><g class="tick" opacity="1" transform="translate(0,315.5)"><line stroke="currentColor" x2="-6"/><text fill="currentColor" x="-9" dy="0.32em">2,000,000</text></g><g class="tick" opacity="1" transform="translate(0,270.5)"><line stroke="currentColor" x2="-6"/><text fill="currentColor" x="-9" dy="0.32em">4,000,000</text></g><g class="tick" opacity="1" transform="translate(0,225.5)"><line stroke="currentColor" x2="-6"/><text fill="currentColor" x="-9" dy="0.32em">6,000,000</text></g><g class="tick" opacity="1" transform="translate(0,180.5)"><line stroke="currentColor" x2="-6"/><text fill="currentColor" x="-9" dy="0.32em">8,000,000</text></g><g class="tick" opacity="1" transform="translate(0,135.5)"><line stroke="currentColor" x2="-6"/><text fill="currentColor" x="-9" dy="0.32em">10,000,000</text></g><g class="tick" opacity="1" transform="translate(0,90.5)"><line stroke="currentColor" x2="-6"/><text fill="currentColor" x="-9" dy="0.32em">12,000,000</text></g><g class="tick" opacity="1" transform="translate(0,45.5)"><line stroke="currentColor" x2="-6"/><text fill="currentColor" x="-9" dy="0.32em">14,000,000</text></g><g class="tick" opacity="1" transform="translate(0,0.5)"><line stroke="currentColor" x2="-6"/><text fill="currentColor" x="-9" dy="0.32em">16,000,000</text></g></g><text y="356" x="170" text-anchor="end" style="font-family: Arial, sans-serif; font-size: 12px; fill: rgb(123, 123, 123); font-weight: bold;">Destination</text></g><text x="4" y="4" style="font-family: Arial, sans-serif; font-size: 12px; fill: black; font-weight: bold; dominant-baseline: hanging;">Beurre</text></g><g transform="translate(250,0)"><g transform="translate(70,20)"><g id="France" fill="#4a90e2"><rect x="17.89473684210526" y="266.9331375" width="58.1578947368421" height="0"/><rect x="93.94736842105263" y="2.2199714999999554" width="58.1578947368421" height="0.005778000000020711"/></g><g id="Étranger" fill="#50e3c2"><rect x="17.89473684210526" y="266.9331375" width="58.1578947368421" height="93.06686250000001"/><rect x="93.94736842105263" y="2.2257494999999716" width="58.1578947368421" height="357.77425050000005"/></g><g id="xAxis" transform="translate(0,360)" fill="none" font-size="10" font-family="sans-serif" text-anchor="middle"><path class="domain" stroke="currentColor" d="M0.5,0.5H170.5"/><g class="tick" opacity="1" transform="translate(46.973684210526315,0)"><line stroke="currentColor" y2="6"/><text fill="currentColor" y="9" dy="0.71em">Dunkerque</text></g><g class="tick" opacity="1" transform="translate(123.02631578947368,0)"><line stroke="currentColor" y2="6"/><text fill="currentColor" y="9" dy="0.71em">Autres ports francs</text></g></g><g id="yAxis" fill="none" font-size="10" font-family="sans-serif" text-anchor="end"><path class="domain" stroke="currentColor" d="M0.5,360.5V0.5"/><g class="tick" opacity="1" transform="translate(0,360.5)"><line stroke="currentColor" x2="-6"/><text fill="currentColor" x="-9" dy="0.32em">0</text></g><g class="tick" opacity="1" transform="translate(0,315.5)"><line stroke="currentColor" x2="-6"/><text fill="currentColor" x="-9" dy="0.32em">2,000,000</text></g><g class="tick" opacity="1" transform="translate(0,270.5)"><line stroke="currentColor" x2="-6"/><text fill="currentColor" x="-9" dy="0.32em">4,000,000</text></g><g class="tick" opacity="1" transform="translate(0,225.5)"><line stroke="currentColor" x2="-6"/><text fill="currentColor" x="-9" dy="0.32em">6,000,000</text></g><g class="tick" opacity="1" transform="translate(0,180.5)"><line stroke="currentColor" x2="-6"/><text fill="currentColor" x="-9" dy="0.32em">8,000,000</text></g><g class="tick" opacity="1" transform="translate(0,135.5)"><line stroke="currentColor" x2="-6"/><text fill="currentColor" x="-9" dy="0.32em">10,000,000</text></g><g class="tick" opacity="1" transform="translate(0,90.5)"><line stroke="currentColor" x2="-6"/><text fill="currentColor" x="-9" dy="0.32em">12,000,000</text></g><g class="tick" opacity="1" transform="translate(0,45.5)"><line stroke="currentColor" x2="-6"/><text fill="currentColor" x="-9" dy="0.32em">14,000,000</text></g><g class="tick" opacity="1" transform="translate(0,0.5)"><line stroke="currentColor" x2="-6"/><text fill="currentColor" x="-9" dy="0.32em">16,000,000</text></g></g><text y="356" x="170" text-anchor="end" style="font-family: Arial, sans-serif; font-size: 12px; fill: rgb(123, 123, 123); font-weight: bold;">Destination</text></g><text x="4" y="4" style="font-family: Arial, sans-serif; font-size: 12px; fill: black; font-weight: bold; dominant-baseline: hanging;">Café</text></g><g transform="translate(500,0)"><g transform="translate(70,20)"><g id="France" fill="#4a90e2"><rect x="17.89473684210526" y="333.64487475" width="58.1578947368421" height="0.23145525000001044"/><rect x="93.94736842105263" y="155.27346749999998" width="58.1578947368421" height="0.08120250000001761"/></g><g id="Étranger" fill="#50e3c2"><rect x="17.89473684210526" y="333.87633" width="58.1578947368421" height="26.123670000000004"/><rect x="93.94736842105263" y="155.35467" width="58.1578947368421" height="204.64533"/></g><g id="xAxis" transform="translate(0,360)" fill="none" font-size="10" font-family="sans-serif" text-anchor="middle"><path class="domain" stroke="currentColor" d="M0.5,0.5H170.5"/><g class="tick" opacity="1" transform="translate(46.973684210526315,0)"><line stroke="currentColor" y2="6"/><text fill="currentColor" y="9" dy="0.71em">Dunkerque</text></g><g class="tick" opacity="1" transform="translate(123.02631578947368,0)"><line stroke="currentColor" y2="6"/><text fill="currentColor" y="9" dy="0.71em">Autres ports francs</text></g></g><g id="yAxis" fill="none" font-size="10" font-family="sans-serif" text-anchor="end"><path class="domain" stroke="currentColor" d="M0.5,360.5V0.5"/><g class="tick" opacity="1" transform="translate(0,360.5)"><line stroke="currentColor" x2="-6"/><text fill="currentColor" x="-9" dy="0.32em">0</text></g><g class="tick" opacity="1" transform="translate(0,315.5)"><line stroke="currentColor" x2="-6"/><text fill="currentColor" x="-9" dy="0.32em">2,000,000</text></g><g class="tick" opacity="1" transform="translate(0,270.5)"><line stroke="currentColor" x2="-6"/><text fill="currentColor" x="-9" dy="0.32em">4,000,000</text></g><g class="tick" opacity="1" transform="translate(0,225.5)"><line stroke="currentColor" x2="-6"/><text fill="currentColor" x="-9" dy="0.32em">6,000,000</text></g><g class="tick" opacity="1" transform="translate(0,180.5)"><line stroke="currentColor" x2="-6"/><text fill="currentColor" x="-9" dy="0.32em">8,000,000</text></g><g class="tick" opacity="1" transform="translate(0,135.5)"><line stroke="currentColor" x2="-6"/><text fill="currentColor" x="-9" dy="0.32em">10,000,000</text></g><g class="tick" opacity="1" transform="translate(0,90.5)"><line stroke="currentColor" x2="-6"/><text fill="currentColor" x="-9" dy="0.32em">12,000,000</text></g><g class="tick" opacity="1" transform="translate(0,45.5)"><line stroke="currentColor" x2="-6"/><text fill="currentColor" x="-9" dy="0.32em">14,000,000</text></g><g class="tick" opacity="1" transform="translate(0,0.5)"><line stroke="currentColor" x2="-6"/><text fill="currentColor" x="-9" dy="0.32em">16,000,000</text></g></g><text y="356" x="170" text-anchor="end" style="font-family: Arial, sans-serif; font-size: 12px; fill: rgb(123, 123, 123); font-weight: bold;">Destination</text></g><text x="4" y="4" style="font-family: Arial, sans-serif; font-size: 12px; fill: black; font-weight: bold; dominant-baseline: hanging;">Coton non transformé</text></g><g transform="translate(750,0)"><g transform="translate(70,20)"><g id="France" fill="#4a90e2"><rect x="17.89473684210526" y="284.14907167499996" width="58.1578947368421" height="23.60169832500003"/><rect x="93.94736842105263" y="344.141878275" width="58.1578947368421" height="14.058436725000035"/></g><g id="Étranger" fill="#50e3c2"><rect x="17.89473684210526" y="307.75077" width="58.1578947368421" height="52.24923000000001"/><rect x="93.94736842105263" y="358.200315" width="58.1578947368421" height="1.7996850000000109"/></g><g id="xAxis" transform="translate(0,360)" fill="none" font-size="10" font-family="sans-serif" text-anchor="middle"><path class="domain" stroke="currentColor" d="M0.5,0.5H170.5"/><g class="tick" opacity="1" transform="translate(46.973684210526315,0)"><line stroke="currentColor" y2="6"/><text fill="currentColor" y="9" dy="0.71em">Dunkerque</text></g><g class="tick" opacity="1" transform="translate(123.02631578947368,0)"><line stroke="currentColor" y2="6"/><text fill="currentColor" y="9" dy="0.71em">Autres ports francs</text></g></g><g id="yAxis" fill="none" font-size="10" font-family="sans-serif" text-anchor="end"><path class="domain" stroke="currentColor" d="M0.5,360.5V0.5"/><g class="tick" opacity="1" transform="translate(0,360.5)"><line stroke="currentColor" x2="-6"/><text fill="currentColor" x="-9" dy="0.32em">0</text></g><g class="tick" opacity="1" transform="translate(0,315.5)"><line stroke="currentColor" x2="-6"/><text fill="currentColor" x="-9" dy="0.32em">2,000,000</text></g><g class="tick" opacity="1" transform="translate(0,270.5)"><line stroke="currentColor" x2="-6"/><text fill="currentColor" x="-9" dy="0.32em">4,000,000</text></g><g class="tick" opacity="1" transform="translate(0,225.5)"><line stroke="currentColor" x2="-6"/><text fill="currentColor" x="-9" dy="0.32em">6,000,000</text></g><g class="tick" opacity="1" transform="translate(0,180.5)"><line stroke="currentColor" x2="-6"/><text fill="currentColor" x="-9" dy="0.32em">8,000,000</text></g><g class="tick" opacity="1" transform="translate(0,135.5)"><line stroke="currentColor" x2="-6"/><text fill="currentColor" x="-9" dy="0.32em">10,000,000</text></g><g class="tick" opacity="1" transform="translate(0,90.5)"><line stroke="currentColor" x2="-6"/><text fill="currentColor" x="-9" dy="0.32em">12,000,000</text></g><g class="tick" opacity="1" transform="translate(0,45.5)"><line stroke="currentColor" x2="-6"/><text fill="currentColor" x="-9" dy="0.32em">14,000,000</text></g><g class="tick" opacity="1" transform="translate(0,0.5)"><line stroke="currentColor" x2="-6"/><text fill="currentColor" x="-9" dy="0.32em">16,000,000</text></g></g><text y="356" x="170" text-anchor="end" style="font-family: Arial, sans-serif; font-size: 12px; fill: rgb(123, 123, 123); font-weight: bold;">Destination</text></g><text x="4" y="4" style="font-family: Arial, sans-serif; font-size: 12px; fill: black; font-weight: bold; dominant-baseline: hanging;">Eaux-de-vie et liqueurs</text></g><g transform="translate(0,400)"><g transform="translate(70,20)"><g id="France" fill="#4a90e2"><rect x="17.89473684210526" y="277.12165500000003" width="58.1578947368421" height="0.0013725000000022192"/><rect x="93.94736842105263" y="33.44995574999997" width="58.1578947368421" height="0.15140924999997196"/></g><g id="Étranger" fill="#50e3c2"><rect x="17.89473684210526" y="277.12302750000003" width="58.1578947368421" height="82.87697249999997"/><rect x="93.94736842105263" y="33.60136500000001" width="58.1578947368421" height="326.398635"/></g><g id="xAxis" transform="translate(0,360)" fill="none" font-size="10" font-family="sans-serif" text-anchor="middle"><path class="domain" stroke="currentColor" d="M0.5,0.5H170.5"/><g class="tick" opacity="1" transform="translate(46.973684210526315,0)"><line stroke="currentColor" y2="6"/><text fill="currentColor" y="9" dy="0.71em">Dunkerque</text></g><g class="tick" opacity="1" transform="translate(123.02631578947368,0)"><line stroke="currentColor" y2="6"/><text fill="currentColor" y="9" dy="0.71em">Autres ports francs</text></g></g><g id="yAxis" fill="none" font-size="10" font-family="sans-serif" text-anchor="end"><path class="domain" stroke="currentColor" d="M0.5,360.5V0.5"/><g class="tick" opacity="1" transform="translate(0,360.5)"><line stroke="currentColor" x2="-6"/><text fill="currentColor" x="-9" dy="0.32em">0</text></g><g class="tick" opacity="1" transform="translate(0,315.5)"><line stroke="currentColor" x2="-6"/><text fill="currentColor" x="-9" dy="0.32em">2,000,000</text></g><g class="tick" opacity="1" transform="translate(0,270.5)"><line stroke="currentColor" x2="-6"/><text fill="currentColor" x="-9" dy="0.32em">4,000,000</text></g><g class="tick" opacity="1" transform="translate(0,225.5)"><line stroke="currentColor" x2="-6"/><text fill="currentColor" x="-9" dy="0.32em">6,000,000</text></g><g class="tick" opacity="1" transform="translate(0,180.5)"><line stroke="currentColor" x2="-6"/><text fill="currentColor" x="-9" dy="0.32em">8,000,000</text></g><g class="tick" opacity="1" transform="translate(0,135.5)"><line stroke="currentColor" x2="-6"/><text fill="currentColor" x="-9" dy="0.32em">10,000,000</text></g><g class="tick" opacity="1" transform="translate(0,90.5)"><line stroke="currentColor" x2="-6"/><text fill="currentColor" x="-9" dy="0.32em">12,000,000</text></g><g class="tick" opacity="1" transform="translate(0,45.5)"><line stroke="currentColor" x2="-6"/><text fill="currentColor" x="-9" dy="0.32em">14,000,000</text></g><g class="tick" opacity="1" transform="translate(0,0.5)"><line stroke="currentColor" x2="-6"/><text fill="currentColor" x="-9" dy="0.32em">16,000,000</text></g></g><text y="356" x="170" text-anchor="end" style="font-family: Arial, sans-serif; font-size: 12px; fill: rgb(123, 123, 123); font-weight: bold;">Destination</text></g><text x="4" y="4" style="font-family: Arial, sans-serif; font-size: 12px; fill: black; font-weight: bold; dominant-baseline: hanging;">Sucre</text></g><g transform="translate(250,400)"><g transform="translate(70,20)"><g id="France" fill="#4a90e2"><rect x="17.89473684210526" y="309.7414845" width="58.1578947368421" height="5.020488"/><rect x="93.94736842105263" y="334.957848975" width="58.1578947368421" height="2.4058822499999906"/></g><g id="Étranger" fill="#50e3c2"><rect x="17.89473684210526" y="314.7619725" width="58.1578947368421" height="45.23802749999999"/><rect x="93.94736842105263" y="337.36373122500004" width="58.1578947368421" height="22.636268774999962"/></g><g id="xAxis" transform="translate(0,360)" fill="none" font-size="10" font-family="sans-serif" text-anchor="middle"><path class="domain" stroke="currentColor" d="M0.5,0.5H170.5"/><g class="tick" opacity="1" transform="translate(46.973684210526315,0)"><line stroke="currentColor" y2="6"/><text fill="currentColor" y="9" dy="0.71em">Dunkerque</text></g><g class="tick" opacity="1" transform="translate(123.02631578947368,0)"><line stroke="currentColor" y2="6"/><text fill="currentColor" y="9" dy="0.71em">Autres ports francs</text></g></g><g id="yAxis" fill="none" font-size="10" font-family="sans-serif" text-anchor="end"><path class="domain" stroke="currentColor" d="M0.5,360.5V0.5"/><g class="tick" opacity="1" transform="translate(0,360.5)"><line stroke="currentColor" x2="-6"/><text fill="currentColor" x="-9" dy="0.32em">0</text></g><g class="tick" opacity="1" transform="translate(0,315.5)"><line stroke="currentColor" x2="-6"/><text fill="currentColor" x="-9" dy="0.32em">2,000,000</text></g><g class="tick" opacity="1" transform="translate(0,270.5)"><line stroke="currentColor" x2="-6"/><text fill="currentColor" x="-9" dy="0.32em">4,000,000</text></g><g class="tick" opacity="1" transform="translate(0,225.5)"><line stroke="currentColor" x2="-6"/><text fill="currentColor" x="-9" dy="0.32em">6,000,000</text></g><g class="tick" opacity="1" transform="translate(0,180.5)"><line stroke="currentColor" x2="-6"/><text fill="currentColor" x="-9" dy="0.32em">8,000,000</text></g><g class="tick" opacity="1" transform="translate(0,135.5)"><line stroke="currentColor" x2="-6"/><text fill="currentColor" x="-9" dy="0.32em">10,000,000</text></g><g class="tick" opacity="1" transform="translate(0,90.5)"><line stroke="currentColor" x2="-6"/><text fill="currentColor" x="-9" dy="0.32em">12,000,000</text></g><g class="tick" opacity="1" transform="translate(0,45.5)"><line stroke="currentColor" x2="-6"/><text fill="currentColor" x="-9" dy="0.32em">14,000,000</text></g><g class="tick" opacity="1" transform="translate(0,0.5)"><line stroke="currentColor" x2="-6"/><text fill="currentColor" x="-9" dy="0.32em">16,000,000</text></g></g><text y="356" x="170" text-anchor="end" style="font-family: Arial, sans-serif; font-size: 12px; fill: rgb(123, 123, 123); font-weight: bold;">Destination</text></g><text x="4" y="4" style="font-family: Arial, sans-serif; font-size: 12px; fill: black; font-weight: bold; dominant-baseline: hanging;">Tabac</text></g><g transform="translate(500,400)"><g transform="translate(70,20)"><g id="France" fill="#4a90e2"><rect x="17.89473684210526" y="340.724295" width="58.1578947368421" height="0"/><rect x="93.94736842105263" y="359.9554725" width="58.1578947368421" height="0"/></g><g id="Étranger" fill="#50e3c2"><rect x="17.89473684210526" y="340.724295" width="58.1578947368421" height="19.275705000000016"/><rect x="93.94736842105263" y="359.9554725" width="58.1578947368421" height="0.04452750000001515"/></g><g id="xAxis" transform="translate(0,360)" fill="none" font-size="10" font-family="sans-serif" text-anchor="middle"><path class="domain" stroke="currentColor" d="M0.5,0.5H170.5"/><g class="tick" opacity="1" transform="translate(46.973684210526315,0)"><line stroke="currentColor" y2="6"/><text fill="currentColor" y="9" dy="0.71em">Dunkerque</text></g><g class="tick" opacity="1" transform="translate(123.02631578947368,0)"><line stroke="currentColor" y2="6"/><text fill="currentColor" y="9" dy="0.71em">Autres ports francs</text></g></g><g id="yAxis" fill="none" font-size="10" font-family="sans-serif" text-anchor="end"><path class="domain" stroke="currentColor" d="M0.5,360.5V0.5"/><g class="tick" opacity="1" transform="translate(0,360.5)"><line stroke="currentColor" x2="-6"/><text fill="currentColor" x="-9" dy="0.32em">0</text></g><g class="tick" opacity="1" transform="translate(0,315.5)"><line stroke="currentColor" x2="-6"/><text fill="currentColor" x="-9" dy="0.32em">2,000,000</text></g><g class="tick" opacity="1" transform="translate(0,270.5)"><line stroke="currentColor" x2="-6"/><text fill="currentColor" x="-9" dy="0.32em">4,000,000</text></g><g class="tick" opacity="1" transform="translate(0,225.5)"><line stroke="currentColor" x2="-6"/><text fill="currentColor" x="-9" dy="0.32em">6,000,000</text></g><g class="tick" opacity="1" transform="translate(0,180.5)"><line stroke="currentColor" x2="-6"/><text fill="currentColor" x="-9" dy="0.32em">8,000,000</text></g><g class="tick" opacity="1" transform="translate(0,135.5)"><line stroke="currentColor" x2="-6"/><text fill="currentColor" x="-9" dy="0.32em">10,000,000</text></g><g class="tick" opacity="1" transform="translate(0,90.5)"><line stroke="currentColor" x2="-6"/><text fill="currentColor" x="-9" dy="0.32em">12,000,000</text></g><g class="tick" opacity="1" transform="translate(0,45.5)"><line stroke="currentColor" x2="-6"/><text fill="currentColor" x="-9" dy="0.32em">14,000,000</text></g><g class="tick" opacity="1" transform="translate(0,0.5)"><line stroke="currentColor" x2="-6"/><text fill="currentColor" x="-9" dy="0.32em">16,000,000</text></g></g><text y="356" x="170" text-anchor="end" style="font-family: Arial, sans-serif; font-size: 12px; fill: rgb(123, 123, 123); font-weight: bold;">Destination</text></g><text x="4" y="4" style="font-family: Arial, sans-serif; font-size: 12px; fill: black; font-weight: bold; dominant-baseline: hanging;">Thé</text></g><g transform="translate(750,400)"><g transform="translate(70,20)"><g id="France" fill="#4a90e2"><rect x="17.89473684210526" y="353.8050507" width="58.1578947368421" height="2.48557679999999"/><rect x="93.94736842105263" y="305.913095775" width="58.1578947368421" height="50.111979975"/></g><g id="Étranger" fill="#50e3c2"><rect x="17.89473684210526" y="356.29062749999997" width="58.1578947368421" height="3.709372500000029"/><rect x="93.94736842105263" y="356.02507575" width="58.1578947368421" height="3.974924250000015"/></g><g id="xAxis" transform="translate(0,360)" fill="none" font-size="10" font-family="sans-serif" text-anchor="middle"><path class="domain" stroke="currentColor" d="M0.5,0.5H170.5"/><g class="tick" opacity="1" transform="translate(46.973684210526315,0)"><line stroke="currentColor" y2="6"/><text fill="currentColor" y="9" dy="0.71em">Dunkerque</text></g><g class="tick" opacity="1" transform="translate(123.02631578947368,0)"><line stroke="currentColor" y2="6"/><text fill="currentColor" y="9" dy="0.71em">Autres ports francs</text></g></g><g id="yAxis" fill="none" font-size="10" font-family="sans-serif" text-anchor="end"><path class="domain" stroke="currentColor" d="M0.5,360.5V0.5"/><g class="tick" opacity="1" transform="translate(0,360.5)"><line stroke="currentColor" x2="-6"/><text fill="currentColor" x="-9" dy="0.32em">0</text></g><g class="tick" opacity="1" transform="translate(0,315.5)"><line stroke="currentColor" x2="-6"/><text fill="currentColor" x="-9" dy="0.32em">2,000,000</text></g><g class="tick" opacity="1" transform="translate(0,270.5)"><line stroke="currentColor" x2="-6"/><text fill="currentColor" x="-9" dy="0.32em">4,000,000</text></g><g class="tick" opacity="1" transform="translate(0,225.5)"><line stroke="currentColor" x2="-6"/><text fill="currentColor" x="-9" dy="0.32em">6,000,000</text></g><g class="tick" opacity="1" transform="translate(0,180.5)"><line stroke="currentColor" x2="-6"/><text fill="currentColor" x="-9" dy="0.32em">8,000,000</text></g><g class="tick" opacity="1" transform="translate(0,135.5)"><line stroke="currentColor" x2="-6"/><text fill="currentColor" x="-9" dy="0.32em">10,000,000</text></g><g class="tick" opacity="1" transform="translate(0,90.5)"><line stroke="currentColor" x2="-6"/><text fill="currentColor" x="-9" dy="0.32em">12,000,000</text></g><g class="tick" opacity="1" transform="translate(0,45.5)"><line stroke="currentColor" x2="-6"/><text fill="currentColor" x="-9" dy="0.32em">14,000,000</text></g><g class="tick" opacity="1" transform="translate(0,0.5)"><line stroke="currentColor" x2="-6"/><text fill="currentColor" x="-9" dy="0.32em">16,000,000</text></g></g><text y="356" x="170" text-anchor="end" style="font-family: Arial, sans-serif; font-size: 12px; fill: rgb(123, 123, 123); font-weight: bold;">Destination</text></g><text x="4" y="4" style="font-family: Arial, sans-serif; font-size: 12px; fill: black; font-weight: bold; dominant-baseline: hanging;">Vins divers</text></g></g><g id="legend" transform="translate(1000,20)"><g transform="translate(5,0)"><g class="legendColor" transform="translate(0,0)"><g class="legendCells" transform="translate(0,16)"><g class="cell" transform="translate(0, 0)"><rect class="swatch" height="15" width="15" style="fill: rgb(74, 144, 226);"/><text class="label" transform="translate( 20, 12.5)" font-family="&quot;Arial&quot;, sans-serif" font-size="10px"><tspan x="0" dy="0em">France</tspan></text></g><g class="cell" transform="translate(0, 21)"><rect class="swatch" height="15" width="15" style="fill: rgb(80, 227, 194);"/><text class="label" transform="translate( 20, 12.5)" font-family="&quot;Arial&quot;, sans-serif" font-size="10px"><tspan x="0" dy="0em">Étranger</tspan></text></g></g><text class="legendTitle" font-family="&quot;Arial&quot;, sans-serif" font-size="12px" font-weight="bold"><tspan x="0" dy="0em">Colors</tspan></text></g></g></g></svg>