<svg xmlns="http://www.w3.org/2000/svg" width="805" height="400"><rect width="805" height="400" x="0" y="0" fill="#FFFFFF" id="backgorund"/><g id="viz"><g transform="translate(0,0)"><g transform="translate(100,25)"><g class="bars"><rect id="undefined - Bayonne" x="0" y="305.28599605522686" height="42.7120315581854" width="660.25" fill="#fb72aa"/><rect id="undefined - Dunkerque" x="0" y="255.57199211045364" height="42.7120315581854" width="338.94615384615383" fill="#fdbe70"/><rect id="undefined - Bordeaux" x="0" y="205.85798816568047" height="42.7120315581854" width="250.2" fill="#e85e49"/><rect id="undefined - Noirmoutier" x="0" y="156.1439842209073" height="42.7120315581854" width="234.69615384615383" fill="#5e4fa2"/><rect id="undefined - Nantes" x="0" y="106.42998027613412" height="42.7120315581854" width="78.58846153846153" fill="#56adae"/><rect id="undefined - Lorient" x="0" y="56.71597633136094" height="42.7120315581854" width="43.83846153846154" fill="#fbf8b0"/><rect id="undefined - Marseille" x="0" y="7.0019723865877666" height="42.7120315581854" width="1.0692307692307692" fill="#bee5a0"/></g><g id="xAxis" transform="translate(0,355)" fill="none" font-size="10" font-family="sans-serif" text-anchor="middle"><path class="domain" stroke="currentColor" d="M0.5,6V0.5H695.5V6"/><g class="tick" opacity="1" transform="translate(0.5,0)"><line stroke="currentColor" y2="6"/><text fill="currentColor" y="9" dy="0.71em">0</text></g><g class="tick" opacity="1" transform="translate(53.96153846153847,0)"><line stroke="currentColor" y2="6"/><text fill="currentColor" y="9" dy="0.71em">1</text></g><g class="tick" opacity="1" transform="translate(107.42307692307693,0)"><line stroke="currentColor" y2="6"/><text fill="currentColor" y="9" dy="0.71em">2</text></g><g class="tick" opacity="1" transform="translate(160.8846153846154,0)"><line stroke="currentColor" y2="6"/><text fill="currentColor" y="9" dy="0.71em">3</text></g><g class="tick" opacity="1" transform="translate(214.34615384615387,0)"><line stroke="currentColor" y2="6"/><text fill="currentColor" y="9" dy="0.71em">4</text></g><g class="tick" opacity="1" transform="translate(267.8076923076923,0)"><line stroke="currentColor" y2="6"/><text fill="currentColor" y="9" dy="0.71em">5</text></g><g class="tick" opacity="1" transform="translate(321.2692307692308,0)"><line stroke="currentColor" y2="6"/><text fill="currentColor" y="9" dy="0.71em">6</text></g><g class="tick" opacity="1" transform="translate(374.7307692307692,0)"><line stroke="currentColor" y2="6"/><text fill="currentColor" y="9" dy="0.71em">7</text></g><g class="tick" opacity="1" transform="translate(428.19230769230774,0)"><line stroke="currentColor" y2="6"/><text fill="currentColor" y="9" dy="0.71em">8</text></g><g class="tick" opacity="1" transform="translate(481.65384615384613,0)"><line stroke="currentColor" y2="6"/><text fill="currentColor" y="9" dy="0.71em">9</text></g><g class="tick" opacity="1" transform="translate(535.1153846153846,0)"><line stroke="currentColor" y2="6"/><text fill="currentColor" y="9" dy="0.71em">10</text></g><g class="tick" opacity="1" transform="translate(588.5769230769231,0)"><line stroke="currentColor" y2="6"/><text fill="currentColor" y="9" dy="0.71em">11</text></g><g class="tick" opacity="1" transform="translate(642.0384615384615,0)"><line stroke="currentColor" y2="6"/><text fill="currentColor" y="9" dy="0.71em">12</text></g><g class="tick" opacity="1" transform="translate(695.5,0)"><line stroke="currentColor" y2="6"/><text fill="currentColor" y="9" dy="0.71em">13</text></g><text font-family="Arial, sans-serif" font-size="10" x="695" dy="-5" fill="black" font-weight="bold" text-anchor="end">proportion de trajets peu fiables [mean]</text></g><g id="yAxis" transform="translate(0,0)" fill="none" font-size="10" font-family="sans-serif" text-anchor="end"><path class="domain" stroke="currentColor" d="M0.5,0.5V355.5"/><g class="tick" opacity="1" transform="translate(0,28.357988165680467)"><line stroke="currentColor" x2="-6"/><text fill="currentColor" x="-9" dy="0.32em">Marseille</text></g><g class="tick" opacity="1" transform="translate(0,78.07199211045364)"><line stroke="currentColor" x2="-6"/><text fill="currentColor" x="-9" dy="0.32em">Lorient</text></g><g class="tick" opacity="1" transform="translate(0,127.78599605522682)"><line stroke="currentColor" x2="-6"/><text fill="currentColor" x="-9" dy="0.32em">Nantes</text></g><g class="tick" opacity="1" transform="translate(0,177.5)"><line stroke="currentColor" x2="-6"/><text fill="currentColor" x="-9" dy="0.32em">Noirmoutier</text></g><g class="tick" opacity="1" transform="translate(0,227.21400394477317)"><line stroke="currentColor" x2="-6"/><text fill="currentColor" x="-9" dy="0.32em">Bordeaux</text></g><g class="tick" opacity="1" transform="translate(0,276.92800788954634)"><line stroke="currentColor" x2="-6"/><text fill="currentColor" x="-9" dy="0.32em">Dunkerque</text></g><g class="tick" opacity="1" transform="translate(0,326.64201183431953)"><line stroke="currentColor" x2="-6"/><text fill="currentColor" x="-9" dy="0.32em">Bayonne</text></g><text font-family="Arial, sans-serif" font-size="10" x="4" fill="black" font-weight="bold" text-anchor="start" dominant-baseline="hanging">Port franc</text></g></g><text y="4" x="4" style="font-family: Arial, sans-serif; font-size: 12px; fill: black; font-weight: bold; dominant-baseline: hanging;"/></g></g></svg>