<svg xmlns="http://www.w3.org/2000/svg" width="805" height="600"><rect width="805" height="600" x="0" y="0" fill="#FFFFFF" id="backgorund"/><g id="viz"><g transform="translate(0,0)"><g transform="translate(200,20)"><g class="bars"><rect id="undefined - Muscades" x="0" y="1.2472160356347786" height="26.690423162583517" width="595" fill="rgb(8, 48, 107)"/><rect id="undefined - Vins de Bordeaux" x="0" y="29.18485523385304" height="26.690423162583517" width="595" fill="rgb(8, 48, 107)"/><rect id="undefined - Réglisse" x="0" y="57.1224944320713" height="26.690423162583517" width="595" fill="rgb(8, 48, 107)"/><rect id="undefined - Galle" x="0" y="85.06013363028956" height="26.690423162583517" width="595" fill="rgb(8, 48, 107)"/><rect id="undefined - Girofle" x="0" y="112.99777282850782" height="26.690423162583517" width="595" fill="rgb(8, 48, 107)"/><rect id="undefined - Boissons diverses et mélangées" x="0" y="140.93541202672608" height="26.690423162583517" width="595" fill="rgb(8, 48, 107)"/><rect id="undefined - [vide]" x="0" y="168.87305122494433" height="26.690423162583517" width="595" fill="rgb(8, 48, 107)"/><rect id="undefined - Salpêtre et soufre" x="0" y="196.8106904231626" height="26.690423162583517" width="534.670796383845" fill="rgb(39, 77, 131)"/><rect id="undefined - Beurre" x="0" y="224.74832962138086" height="26.690423162583517" width="470.7119720680639" fill="rgb(71, 107, 157)"/><rect id="undefined - Coton non transformé" x="0" y="252.6859688195991" height="26.690423162583517" width="440.46844319063126" fill="rgb(86, 121, 169)"/><rect id="undefined - Tabac" x="0" y="280.6236080178174" height="26.690423162583517" width="402.24096592163403" fill="rgb(106, 140, 185)"/><rect id="undefined - Bougies, chandelles et flambeaux" x="0" y="308.56124721603567" height="26.690423162583517" width="399.2223035168974" fill="rgb(107, 141, 186)"/><rect id="undefined - Cordage et filets" x="0" y="336.4988864142539" height="26.690423162583517" width="385.6728939727567" fill="rgb(114, 147, 191)"/><rect id="undefined - Eaux-de-vie et liqueurs" x="0" y="364.43652561247217" height="26.690423162583517" width="372.8879494249211" fill="rgb(120, 153, 197)"/><rect id="undefined - Plumes ouvrées" x="0" y="392.37416481069044" height="26.690423162583517" width="345.8684074260479" fill="rgb(134, 166, 207)"/><rect id="undefined - Séné" x="0" y="420.31180400890867" height="26.690423162583517" width="343.8636292733944" fill="rgb(135, 167, 208)"/><rect id="undefined - Sel" x="0" y="448.24944320712694" height="26.690423162583517" width="341.16009148032373" fill="rgb(137, 169, 209)"/><rect id="undefined - Produits inconnus" x="0" y="476.1870824053452" height="26.690423162583517" width="300.1740000844193" fill="rgb(157, 188, 226)"/><rect id="undefined - Ouvrages divers et mélangés" x="0" y="504.12472160356344" height="26.690423162583517" width="247.80490941465433" fill="rgb(184, 213, 247)"/><rect id="undefined - Fils divers" x="0" y="532.0623608017818" height="26.690423162583517" width="245.40970459460206" fill="rgb(185, 214, 248)"/></g><g id="xAxis" transform="translate(0,560)" fill="none" font-size="10" font-family="sans-serif" text-anchor="middle"><path class="domain" stroke="currentColor" d="M0.5,6V0.5H595.5V6"/><g class="tick" opacity="1" transform="translate(0.5,0)"><line stroke="currentColor" y2="6"/><text fill="currentColor" y="9" dy="0.71em">0</text></g><g class="tick" opacity="1" transform="translate(60,0)"><line stroke="currentColor" y2="6"/><text fill="currentColor" y="9" dy="0.71em">10</text></g><g class="tick" opacity="1" transform="translate(119.5,0)"><line stroke="currentColor" y2="6"/><text fill="currentColor" y="9" dy="0.71em">20</text></g><g class="tick" opacity="1" transform="translate(179,0)"><line stroke="currentColor" y2="6"/><text fill="currentColor" y="9" dy="0.71em">30</text></g><g class="tick" opacity="1" transform="translate(238.5,0)"><line stroke="currentColor" y2="6"/><text fill="currentColor" y="9" dy="0.71em">40</text></g><g class="tick" opacity="1" transform="translate(298,0)"><line stroke="currentColor" y2="6"/><text fill="currentColor" y="9" dy="0.71em">50</text></g><g class="tick" opacity="1" transform="translate(357.5,0)"><line stroke="currentColor" y2="6"/><text fill="currentColor" y="9" dy="0.71em">60</text></g><g class="tick" opacity="1" transform="translate(417,0)"><line stroke="currentColor" y2="6"/><text fill="currentColor" y="9" dy="0.71em">70</text></g><g class="tick" opacity="1" transform="translate(476.5,0)"><line stroke="currentColor" y2="6"/><text fill="currentColor" y="9" dy="0.71em">80</text></g><g class="tick" opacity="1" transform="translate(536,0)"><line stroke="currentColor" y2="6"/><text fill="currentColor" y="9" dy="0.71em">90</text></g><g class="tick" opacity="1" transform="translate(595.5,0)"><line stroke="currentColor" y2="6"/><text fill="currentColor" y="9" dy="0.71em">100</text></g><text font-family="Arial, sans-serif" font-size="10" x="595" dy="-5" fill="black" font-weight="bold" text-anchor="end">%_dunkerque_sur_portsfrancs_from_France.csv [sum]</text></g><g id="yAxis" transform="translate(0,0)" fill="none" font-size="10" font-family="sans-serif" text-anchor="end"><path class="domain" stroke="currentColor" d="M0.5,0.5V560.5"/><g class="tick" opacity="1" transform="translate(0,14.592427616926537)"><line stroke="currentColor" x2="-6"/><text fill="currentColor" x="-9" dy="0.32em">Muscades</text></g><g class="tick" opacity="1" transform="translate(0,42.5300668151448)"><line stroke="currentColor" x2="-6"/><text fill="currentColor" x="-9" dy="0.32em">Vins de Bordeaux</text></g><g class="tick" opacity="1" transform="translate(0,70.46770601336306)"><line stroke="currentColor" x2="-6"/><text fill="currentColor" x="-9" dy="0.32em">Réglisse</text></g><g class="tick" opacity="1" transform="translate(0,98.40534521158132)"><line stroke="currentColor" x2="-6"/><text fill="currentColor" x="-9" dy="0.32em">Galle</text></g><g class="tick" opacity="1" transform="translate(0,126.34298440979958)"><line stroke="currentColor" x2="-6"/><text fill="currentColor" x="-9" dy="0.32em">Girofle</text></g><g class="tick" opacity="1" transform="translate(0,154.28062360801783)"><line stroke="currentColor" x2="-6"/><text fill="currentColor" x="-9" dy="0.32em">Boissons diverses et mélangées</text></g><g class="tick" opacity="1" transform="translate(0,182.21826280623608)"><line stroke="currentColor" x2="-6"/><text fill="currentColor" x="-9" dy="0.32em">[vide]</text></g><g class="tick" opacity="1" transform="translate(0,210.15590200445436)"><line stroke="currentColor" x2="-6"/><text fill="currentColor" x="-9" dy="0.32em">Salpêtre et soufre</text></g><g class="tick" opacity="1" transform="translate(0,238.0935412026726)"><line stroke="currentColor" x2="-6"/><text fill="currentColor" x="-9" dy="0.32em">Beurre</text></g><g class="tick" opacity="1" transform="translate(0,266.0311804008909)"><line stroke="currentColor" x2="-6"/><text fill="currentColor" x="-9" dy="0.32em">Coton non transformé</text></g><g class="tick" opacity="1" transform="translate(0,293.96881959910917)"><line stroke="currentColor" x2="-6"/><text fill="currentColor" x="-9" dy="0.32em">Tabac</text></g><g class="tick" opacity="1" transform="translate(0,321.90645879732745)"><line stroke="currentColor" x2="-6"/><text fill="currentColor" x="-9" dy="0.32em">Bougies, chandelles et flambeaux</text></g><g class="tick" opacity="1" transform="translate(0,349.84409799554567)"><line stroke="currentColor" x2="-6"/><text fill="currentColor" x="-9" dy="0.32em">Cordage et filets</text></g><g class="tick" opacity="1" transform="translate(0,377.78173719376395)"><line stroke="currentColor" x2="-6"/><text fill="currentColor" x="-9" dy="0.32em">Eaux-de-vie et liqueurs</text></g><g class="tick" opacity="1" transform="translate(0,405.7193763919822)"><line stroke="currentColor" x2="-6"/><text fill="currentColor" x="-9" dy="0.32em">Plumes ouvrées</text></g><g class="tick" opacity="1" transform="translate(0,433.65701559020044)"><line stroke="currentColor" x2="-6"/><text fill="currentColor" x="-9" dy="0.32em">Séné</text></g><g class="tick" opacity="1" transform="translate(0,461.5946547884187)"><line stroke="currentColor" x2="-6"/><text fill="currentColor" x="-9" dy="0.32em">Sel</text></g><g class="tick" opacity="1" transform="translate(0,489.532293986637)"><line stroke="currentColor" x2="-6"/><text fill="currentColor" x="-9" dy="0.32em">Produits inconnus</text></g><g class="tick" opacity="1" transform="translate(0,517.4699331848552)"><line stroke="currentColor" x2="-6"/><text fill="currentColor" x="-9" dy="0.32em">Ouvrages divers et mélangés</text></g><g class="tick" opacity="1" transform="translate(0,545.4075723830736)"><line stroke="currentColor" x2="-6"/><text fill="currentColor" x="-9" dy="0.32em">Fils divers</text></g><text font-family="Arial, sans-serif" font-size="10" x="4" fill="black" font-weight="bold" text-anchor="start" dominant-baseline="hanging">produit</text></g></g><text y="4" x="4" style="font-family: Arial, sans-serif; font-size: 12px; fill: black; font-weight: bold; dominant-baseline: hanging;"/></g></g></svg>