<svg xmlns="http://www.w3.org/2000/svg" width="805" height="600"><rect width="805" height="600" x="0" y="0" fill="#FFFFFF" id="backgorund"/><g transform="translate(10,10)" id="visualization"><g><rect x="0" y="0" height="0.10413129598191517" width="5" fill="black"><title>19: 2</title></rect><rect x="0" y="5.104131295981915" height="0.10413129598191517" width="5" fill="black"><title>11: 2</title></rect><rect x="780" y="2.5" height="0.15619694397283013" width="5" fill="black"><title>Brest: 3</title></rect><rect x="780" y="7.65619694397283" height="0.15619694397281592" width="5" fill="black"><title>Mortagne: 3</title></rect><rect x="0" y="10.20826259196383" height="0.20826259196383035" width="5" fill="black"><title>1: 4</title></rect><rect x="0" y="15.41652518392766" height="0.20826259196383035" width="5" fill="black"><title>9: 4</title></rect><rect x="0" y="20.62478777589149" height="0.20826259196383035" width="5" fill="black"><title>14: 4</title></rect><rect x="780" y="12.812393887945646" height="0.3123938879456709" width="5" fill="black"><title>Honfleur: 6</title></rect><rect x="780" y="18.124787775891317" height="0.31239388794566025" width="5" fill="black"><title>Le Tréport: 6</title></rect><rect x="780" y="23.437181663836977" height="0.3123938879456887" width="5" fill="black"><title>Le Pouliguen: 6</title></rect><rect x="0" y="25.83305036785532" height="0.416525183927547" width="5" fill="black"><title>7: 8</title></rect><rect x="0" y="31.24957555178287" height="0.416525183927547" width="5" fill="black"><title>2.5: 8</title></rect><rect x="780" y="28.749575551782666" height="0.4685908319185046" width="5" fill="black"><title>La Rochelle: 9</title></rect><rect x="780" y="34.218166383701174" height="0.4685908319185046" width="5" fill="black"><title>Marennes: 9</title></rect><rect x="780" y="39.68675721561968" height="0.6247877758913418" width="5" fill="black"><title>Bayonne: 12</title></rect><rect x="0" y="36.666100735710415" height="0.6247877758913205" width="5" fill="black"><title>15: 12</title></rect><rect x="0" y="42.290888511601736" height="0.6247877758913205" width="5" fill="black"><title>17: 12</title></rect><rect x="780" y="45.31154499151102" height="0.6247877758913347" width="5" fill="black"><title>Gravelines: 12</title></rect><rect x="780" y="50.936332767402355" height="0.7809847198641364" width="5" fill="black"><title>Noirmoutier: 15</title></rect><rect x="0" y="47.915676287493056" height="0.833050367855094" width="5" fill="black"><title>20: 16</title></rect><rect x="0" y="53.74872665534815" height="0.833050367855094" width="5" fill="black"><title>18: 16</title></rect><rect x="0" y="59.581777023203244" height="0.9371816638370092" width="5" fill="black"><title>8: 18</title></rect><rect x="0" y="65.51895868704025" height="1.0413129598189244" width="5" fill="black"><title>5: 20</title></rect><rect x="780" y="56.71731748726649" height="1.5619694397283865" width="5" fill="black"><title>Rochefort: 30</title></rect><rect x="0" y="71.56027164685918" height="1.6661007357102449" width="5" fill="black"><title>3: 32</title></rect><rect x="780" y="63.27928692699488" height="1.7181663837011385" width="5" fill="black"><title>Le Croisic: 33</title></rect><rect x="780" y="69.99745331069602" height="2.186757215619693" width="5" fill="black"><title>Fécamp: 42</title></rect><rect x="0" y="78.22637238256942" height="2.18675721561965" width="5" fill="black"><title>16: 42</title></rect><rect x="0" y="85.41312959818907" height="2.2908885116015654" width="5" fill="black"><title>10: 44</title></rect><rect x="0" y="92.70401810979064" height="2.2908885116015654" width="5" fill="black"><title>6: 44</title></rect><rect x="780" y="77.18421052631571" height="2.342954159592523" width="5" fill="black"><title>Nantes: 45</title></rect><rect x="780" y="84.52716468590823" height="5.310696095076423" width="5" fill="black"><title>Lorient: 102</title></rect><rect x="780" y="94.83786078098466" height="5.466893039049239" width="5" fill="black"><title>Cherbourg: 105</title></rect><rect x="0" y="99.9949066213922" height="7.185059422750442" width="5" fill="black"><title>4: 138</title></rect><rect x="780" y="105.3047538200339" height="7.185059422750427" width="5" fill="black"><title>Granville: 138</title></rect><rect x="0" y="112.17996604414265" height="8.434634974533111" width="5" fill="black"><title>[201-500]: 162</title></rect><rect x="780" y="117.48981324278432" height="11.714770797962643" width="5" fill="black"><title>Rouen: 225</title></rect><rect x="0" y="125.61460101867576" height="18.535370684776467" width="5" fill="black"><title>2: 356</title></rect><rect x="780" y="134.20458404074697" height="20.930390492359948" width="5" fill="black"><title>Bordeaux: 402</title></rect><rect x="780" y="160.1349745331069" height="22.17996604414259" width="5" fill="black"><title>Roscoff: 426</title></rect><rect x="780" y="187.3149405772495" height="22.33616298811546" width="5" fill="black"><title>Dieppe: 429</title></rect><rect x="780" y="214.65110356536496" height="31.23938879456705" width="5" fill="black"><title>Le Havre: 600</title></rect><rect x="0" y="149.14997170345222" height="41.07979626485567" width="5" fill="black"><title>[101-200]: 789</title></rect><rect x="0" y="195.2297679683079" height="44.82852292020374" width="5" fill="black"><title>[51-100]: 861</title></rect><rect x="0" y="245.05829088851164" height="81.43067345783817" width="5" fill="black"><title>[1-20]: 1564</title></rect><rect x="0" y="331.4889643463498" height="121.36502546689303" width="5" fill="black"><title>[21-50]: 2331</title></rect><rect x="0" y="457.85398981324283" height="122.14601018675717" width="5" fill="black"><title>12: 2346</title></rect><rect x="780" y="250.890492359932" height="127.14431239388801" width="5" fill="black"><title>Calais: 2442</title></rect><rect x="780" y="383.03480475382" height="194.46519524617997" width="5" fill="black"><title>Dunkerque: 3735</title></rect></g><g fill="none" stroke-opacity="1"><g style="mix-blend-mode: multiply;"><path d="M5,195.85455574419925C392.5,195.85455574419925,392.5,40.15534804753818,780,40.15534804753818" stroke="#cccccc" stroke-width="1"/><title>[51-100] → Bayonne: 6</title></g><g style="mix-blend-mode: multiply;"><path d="M5,112.64855687606115C392.5,112.64855687606115,392.5,39.842954159592516,780,39.842954159592516" stroke="#cccccc" stroke-width="1"/><title>[201-500] → Bayonne: 6</title></g><g style="mix-blend-mode: multiply;"><path d="M5,152.74250141482744C392.5,152.74250141482744,392.5,70.57017543859641,780,70.57017543859641" stroke="#cccccc" stroke-width="1"/><title>[101-200] → Fécamp: 18</title></g><g style="mix-blend-mode: multiply;"><path d="M5,245.26655348047544C392.5,245.26655348047544,392.5,71.50735710243342,780,71.50735710243342" stroke="#cccccc" stroke-width="1"/><title>[1-20] → Fécamp: 6</title></g><g style="mix-blend-mode: multiply;"><path d="M5,197.26032823995476C392.5,197.26032823995476,392.5,71.19496321448774,780,71.19496321448774" stroke="#cccccc" stroke-width="1"/><title>[51-100] → Fécamp: 6</title></g><g style="mix-blend-mode: multiply;"><path d="M5,458.11431805319756C392.5,458.11431805319756,392.5,71.92388228636099,780,71.92388228636099" stroke="#d62728" stroke-width="1"/><title>12 → Fécamp: 10</title></g><g style="mix-blend-mode: multiply;"><path d="M5,71.61233729485012C392.5,71.61233729485012,392.5,70.04951895868696,780,70.04951895868696" stroke="#cccccc" stroke-width="1"/><title>3 → Fécamp: 2</title></g><g style="mix-blend-mode: multiply;"><path d="M5,245.0843237125071C392.5,245.0843237125071,392.5,13.098754951895843,780,13.098754951895843" stroke="#cccccc" stroke-width="1"/><title>[1-20] → Honfleur: 1</title></g><g style="mix-blend-mode: multiply;"><path d="M5,149.38426711941148C392.5,149.38426711941148,392.5,12.994623655913953,780,12.994623655913953" stroke="#cccccc" stroke-width="1"/><title>[101-200] → Honfleur: 3</title></g><g style="mix-blend-mode: multiply;"><path d="M5,47.967741935484C392.5,47.967741935484,392.5,12.864459535936591,780,12.864459535936591" stroke="#cccccc" stroke-width="1"/><title>20 → Honfleur: 2</title></g><g style="mix-blend-mode: multiply;"><path d="M5,245.76117713638942C392.5,245.76117713638942,392.5,99.28947368421045,780,99.28947368421045" stroke="#cccccc" stroke-width="1"/><title>[1-20] → Cherbourg: 11</title></g><g style="mix-blend-mode: multiply;"><path d="M5,199.8375778155065C392.5,199.8375778155065,392.5,98.3002263723825,780,98.3002263723825" stroke="#cccccc" stroke-width="1.4057724957555178"/><title>[51-100] → Cherbourg: 27</title></g><g style="mix-blend-mode: multiply;"><path d="M5,113.3514431239389C392.5,113.3514431239389,392.5,96.26966610073563,780,96.26966610073563" stroke="#cccccc" stroke-width="1"/><title>[201-500] → Cherbourg: 15</title></g><g style="mix-blend-mode: multiply;"><path d="M5,337.893039049236C392.5,337.893039049236,392.5,99.88822863610632,780,99.88822863610632" stroke="#cccccc" stroke-width="1"/><title>[21-50] → Cherbourg: 12</title></g><g style="mix-blend-mode: multiply;"><path d="M5,154.92925863044712C392.5,154.92925863044712,392.5,97.12874929258624,780,97.12874929258624" stroke="#cccccc" stroke-width="1"/><title>[101-200] → Cherbourg: 18</title></g><g style="mix-blend-mode: multiply;"><path d="M5,36.71816638370136C392.5,36.71816638370136,392.5,94.8899264289756,780,94.8899264289756" stroke="#8c564b" stroke-width="1"/><title>15 → Cherbourg: 2</title></g><g style="mix-blend-mode: multiply;"><path d="M5,100.15110356536503C392.5,100.15110356536503,392.5,95.72297679683071,780,95.72297679683071" stroke="#cccccc" stroke-width="1"/><title>4 → Cherbourg: 6</title></g><g style="mix-blend-mode: multiply;"><path d="M5,59.73797396717608C392.5,59.73797396717608,392.5,95.30645161290315,780,95.30645161290315" stroke="#cccccc" stroke-width="1"/><title>8 → Cherbourg: 6</title></g><g style="mix-blend-mode: multiply;"><path d="M5,85.46519524618002C392.5,85.46519524618002,392.5,95.51471420486693,780,95.51471420486693" stroke="#ff7f0e" stroke-width="1"/><title>10 → Cherbourg: 2</title></g><g style="mix-blend-mode: multiply;"><path d="M5,48.17600452744777C392.5,48.17600452744777,392.5,94.99405772495749,780,94.99405772495749" stroke="#cccccc" stroke-width="1"/><title>20 → Cherbourg: 2</title></g><g style="mix-blend-mode: multiply;"><path d="M5,458.42671194114325C392.5,458.42671194114325,392.5,100.25268817204292,780,100.25268817204292" stroke="#d62728" stroke-width="1"/><title>12 → Cherbourg: 2</title></g><g style="mix-blend-mode: multiply;"><path d="M5,53.800792303339094C392.5,53.800792303339094,392.5,95.09818902093937,780,95.09818902093937" stroke="#bcbd22" stroke-width="1"/><title>18 → Cherbourg: 2</title></g><g style="mix-blend-mode: multiply;"><path d="M5,173.36049801924167C392.5,173.36049801924167,392.5,224.12705149971697,780,224.12705149971697" stroke="#cccccc" stroke-width="11.558573853989813"/><title>[101-200] → Le Havre: 222</title></g><g style="mix-blend-mode: multiply;"><path d="M5,119.13073005093382C392.5,119.13073005093382,392.5,217.02009054895296,780,217.02009054895296" stroke="#cccccc" stroke-width="2.6553480475382"/><title>[201-500] → Le Havre: 51</title></g><g style="mix-blend-mode: multiply;"><path d="M5,217.80022637238255C392.5,217.80022637238255,392.5,234.3579513299377,780,234.3579513299377" stroke="#cccccc" stroke-width="8.903225806451612"/><title>[51-100] → Le Havre: 171</title></g><g style="mix-blend-mode: multiply;"><path d="M5,363.0407470288624C392.5,363.0407470288624,392.5,242.6103565365025,780,242.6103565365025" stroke="#cccccc" stroke-width="6.560271646859083"/><title>[21-50] → Le Havre: 126</title></g><g style="mix-blend-mode: multiply;"><path d="M5,257.55404640633844C392.5,257.55404640633844,392.5,239.06989247311824,780,239.06989247311824" stroke="#cccccc" stroke-width="1"/><title>[1-20] → Le Havre: 10</title></g><g style="mix-blend-mode: multiply;"><path d="M5,42.6032823995474C392.5,42.6032823995474,392.5,215.0676287492925,780,215.0676287492925" stroke="#7f7f7f" stroke-width="1"/><title>17 → Le Havre: 12</title></g><g style="mix-blend-mode: multiply;"><path d="M5,54.47764572722137C392.5,54.47764572722137,392.5,215.58828522920197,780,215.58828522920197" stroke="#bcbd22" stroke-width="1"/><title>18 → Le Havre: 4</title></g><g style="mix-blend-mode: multiply;"><path d="M5,37.2388228636108C392.5,37.2388228636108,392.5,214.70316921335592,780,214.70316921335592" stroke="#8c564b" stroke-width="1"/><title>15 → Le Havre: 2</title></g><g style="mix-blend-mode: multiply;"><path d="M5,48.69666100735722C392.5,48.69666100735722,392.5,215.43208828522916,780,215.43208828522916" stroke="#cccccc" stroke-width="1"/><title>20 → Le Havre: 2</title></g><g style="mix-blend-mode: multiply;"><path d="M5,331.87945670628187C392.5,331.87945670628187,392.5,45.70203735144311,780,45.70203735144311" stroke="#cccccc" stroke-width="1"/><title>[21-50] → Gravelines: 9</title></g><g style="mix-blend-mode: multiply;"><path d="M5,196.08885116015847C392.5,196.08885116015847,392.5,45.389643463497436,780,45.389643463497436" stroke="#cccccc" stroke-width="1"/><title>[51-100] → Gravelines: 3</title></g><g style="mix-blend-mode: multiply;"><path d="M5,203.50820599886814C392.5,203.50820599886814,392.5,121.86332767402371,780,121.86332767402371" stroke="#cccccc" stroke-width="5.935483870967742"/><title>[51-100] → Rouen: 114</title></g><g style="mix-blend-mode: multiply;"><path d="M5,340.39219015280133C392.5,340.39219015280133,392.5,127.01782682512727,780,127.01782682512727" stroke="#cccccc" stroke-width="4.373514431239388"/><title>[21-50] → Rouen: 84</title></g><g style="mix-blend-mode: multiply;"><path d="M5,156.10073571024338C392.5,156.10073571024338,392.5,118.19269949066208,780,118.19269949066208" stroke="#cccccc" stroke-width="1.4057724957555178"/><title>[101-200] → Rouen: 27</title></g><g style="mix-blend-mode: multiply;"><path d="M5,247.24504810413134C392.5,247.24504810413134,392.5,111.29230333899257,780,111.29230333899257" stroke="#cccccc" stroke-width="2.3950198075834748"/><title>[1-20] → Granville: 46</title></g><g style="mix-blend-mode: multiply;"><path d="M5,93.43293718166387C392.5,93.43293718166387,392.5,108.63695529145437,780,108.63695529145437" stroke="#cccccc" stroke-width="1.457838143746463"/><title>6 → Granville: 28</title></g><g style="mix-blend-mode: multiply;"><path d="M5,125.97906055461237C392.5,125.97906055461237,392.5,109.73033389926421,780,109.73033389926421" stroke="#cccccc" stroke-width="1"/><title>2 → Granville: 14</title></g><g style="mix-blend-mode: multiply;"><path d="M5,59.946236559139855C392.5,59.946236559139855,392.5,105.77334465195239,780,105.77334465195239" stroke="#cccccc" stroke-width="1"/><title>8 → Granville: 2</title></g><g style="mix-blend-mode: multiply;"><path d="M5,10.31239388794572C392.5,10.31239388794572,392.5,105.40888511601578,780,105.40888511601578" stroke="#1f77b4" stroke-width="1"/><title>1 → Granville: 4</title></g><g style="mix-blend-mode: multiply;"><path d="M5,36.822297679683246C392.5,36.822297679683246,392.5,105.6692133559705,780,105.6692133559705" stroke="#8c564b" stroke-width="1"/><title>15 → Granville: 2</title></g><g style="mix-blend-mode: multiply;"><path d="M5,79.26768534238832C392.5,79.26768534238832,392.5,106.86672325976222,780,106.86672325976222" stroke="#e377c2" stroke-width="2.0826259196378043"/><title>16 → Granville: 40</title></g><g style="mix-blend-mode: multiply;"><path d="M5,25.885116015846265C392.5,25.885116015846265,392.5,105.56508205998861,780,105.56508205998861" stroke="#cccccc" stroke-width="1"/><title>7 → Granville: 2</title></g><g style="mix-blend-mode: multiply;"><path d="M5,331.56706281833624C392.5,331.56706281833624,392.5,2.5780984719864177,780,2.5780984719864177" stroke="#cccccc" stroke-width="1"/><title>[21-50] → Brest: 3</title></g><g style="mix-blend-mode: multiply;"><path d="M5,353.434634974533C392.5,353.434634974533,392.5,200.51358234295407,780,200.51358234295407" stroke="#cccccc" stroke-width="12.65195246179966"/><title>[21-50] → Dieppe: 243</title></g><g style="mix-blend-mode: multiply;"><path d="M5,117.33446519524621C392.5,117.33446519524621,392.5,189.7620260328239,780,189.7620260328239" stroke="#cccccc" stroke-width="1"/><title>[201-500] → Dieppe: 18</title></g><g style="mix-blend-mode: multiply;"><path d="M5,256.096208262592C392.5,256.096208262592,392.5,192.99009620826249,780,192.99009620826249" stroke="#cccccc" stroke-width="2.3950198075834748"/><title>[1-20] → Dieppe: 46</title></g><g style="mix-blend-mode: multiply;"><path d="M5,166.95642331635545C392.5,166.95642331635545,392.5,190.85540464063376,780,190.85540464063376" stroke="#cccccc" stroke-width="1.2495755517826825"/><title>[101-200] → Dieppe: 24</title></g><g style="mix-blend-mode: multiply;"><path d="M5,213.19241652518394C392.5,213.19241652518394,392.5,191.63638936049793,780,191.63638936049793" stroke="#cccccc" stroke-width="1"/><title>[51-100] → Dieppe: 6</title></g><g style="mix-blend-mode: multiply;"><path d="M5,86.76683644595364C392.5,86.76683644595364,392.5,188.3562535370684,780,188.3562535370684" stroke="#ff7f0e" stroke-width="1.8743633276740237"/><title>10 → Dieppe: 36</title></g><g style="mix-blend-mode: multiply;"><path d="M5,459.98868138087164C392.5,459.98868138087164,392.5,208.2453310696094,780,208.2453310696094" stroke="#d62728" stroke-width="2.8115449915110355"/><title>12 → Dieppe: 54</title></g><g style="mix-blend-mode: multiply;"><path d="M5,66.5082059988682C392.5,66.5082059988682,392.5,187.36700622524046,780,187.36700622524046" stroke="#cccccc" stroke-width="1"/><title>5 → Dieppe: 2</title></g><g style="mix-blend-mode: multiply;"><path d="M5,149.61856253537076C392.5,149.61856253537076,392.5,18.28098471986415,780,18.28098471986415" stroke="#cccccc" stroke-width="1"/><title>[101-200] → Le Tréport: 6</title></g><g style="mix-blend-mode: multiply;"><path d="M5,153.60158460667805C392.5,153.60158460667805,392.5,77.67883418222968,780,77.67883418222968" stroke="#cccccc" stroke-width="1"/><title>[101-200] → Nantes: 15</title></g><g style="mix-blend-mode: multiply;"><path d="M5,197.80701754385967C392.5,197.80701754385967,392.5,78.45981890209386,780,78.45981890209386" stroke="#cccccc" stroke-width="1"/><title>[51-100] → Nantes: 15</title></g><g style="mix-blend-mode: multiply;"><path d="M5,245.44878324844373C392.5,245.44878324844373,392.5,78.87634408602143,780,78.87634408602143" stroke="#cccccc" stroke-width="1"/><title>[1-20] → Nantes: 1</title></g><g style="mix-blend-mode: multiply;"><path d="M5,333.51952461799664C392.5,333.51952461799664,392.5,79.21477079796257,780,79.21477079796257" stroke="#cccccc" stroke-width="1"/><title>[21-50] → Nantes: 12</title></g><g style="mix-blend-mode: multiply;"><path d="M5,48.07187323146589C392.5,48.07187323146589,392.5,77.23627617430665,780,77.23627617430665" stroke="#cccccc" stroke-width="1"/><title>20 → Nantes: 2</title></g><g style="mix-blend-mode: multiply;"><path d="M5,265.15563101301643C392.5,265.15563101301643,392.5,277.75636672325965,780,277.75636672325965" stroke="#cccccc" stroke-width="14.682512733446519"/><title>[1-20] → Calais: 282</title></g><g style="mix-blend-mode: multiply;"><path d="M5,407.47877758913404C392.5,407.47877758913404,392.5,326.255517826825,780,326.255517826825" stroke="#cccccc" stroke-width="82.3157894736842"/><title>[21-50] → Calais: 1581</title></g><g style="mix-blend-mode: multiply;"><path d="M5,222.48613469156763C392.5,222.48613469156763,392.5,270.18081494057714,780,270.18081494057714" stroke="#cccccc" stroke-width="1"/><title>[51-100] → Calais: 9</title></g><g style="mix-blend-mode: multiply;"><path d="M5,120.53650254668933C392.5,120.53650254668933,392.5,254.82144878324834,780,254.82144878324834" stroke="#cccccc" stroke-width="1"/><title>[201-500] → Calais: 3</title></g><g style="mix-blend-mode: multiply;"><path d="M5,179.217883418223C392.5,179.217883418223,392.5,269.8684210526315,780,269.8684210526315" stroke="#cccccc" stroke-width="1"/><title>[101-200] → Calais: 3</title></g><g style="mix-blend-mode: multiply;"><path d="M5,136.70458404074705C392.5,136.70458404074705,392.5,262.34493491793995,780,262.34493491793995" stroke="#cccccc" stroke-width="14.8907753254103"/><title>2 → Calais: 286</title></g><g style="mix-blend-mode: multiply;"><path d="M5,466.7051499717036C392.5,466.7051499717036,392.5,372.72410865874355,780,372.72410865874355" stroke="#d62728" stroke-width="10.6213921901528"/><title>12 → Calais: 204</title></g><g style="mix-blend-mode: multiply;"><path d="M5,105.35766836445956C392.5,105.35766836445956,392.5,252.92105263157887,780,252.92105263157887" stroke="#cccccc" stroke-width="3.644595359366157"/><title>4 → Calais: 70</title></g><g style="mix-blend-mode: multiply;"><path d="M5,94.89077532541032C392.5,94.89077532541032,392.5,250.9946236559139,780,250.9946236559139" stroke="#cccccc" stroke-width="1"/><title>6 → Calais: 4</title></g><g style="mix-blend-mode: multiply;"><path d="M5,149.22807017543863C392.5,149.22807017543863,392.5,7.734295415959248,780,7.734295415959248" stroke="#cccccc" stroke-width="1"/><title>[101-200] → Mortagne: 3</title></g><g style="mix-blend-mode: multiply;"><path d="M5,299.4929258630447C392.5,299.4929258630447,392.5,438.30249009620826,780,438.30249009620826" stroke="#cccccc" stroke-width="53.99207696661007"/><title>[1-20] → Dunkerque: 1037</title></g><g style="mix-blend-mode: multiply;"><path d="M5,184.7628749292587C392.5,184.7628749292587,392.5,388.50169779286927,780,388.50169779286927" stroke="#cccccc" stroke-width="10.933786078098471"/><title>[101-200] → Dunkerque: 210</title></g><g style="mix-blend-mode: multiply;"><path d="M5,450.74533106960945C392.5,450.74533106960945,392.5,467.40718732314656,780,467.40718732314656" stroke="#cccccc" stroke-width="4.217317487266554"/><title>[21-50] → Dunkerque: 81</title></g><g style="mix-blend-mode: multiply;"><path d="M5,231.38936049801924C392.5,231.38936049801924,392.5,402.63752122241084,780,402.63752122241084" stroke="#cccccc" stroke-width="17.33786078098472"/><title>[51-100] → Dunkerque: 333</title></g><g style="mix-blend-mode: multiply;"><path d="M5,526.0079230333901C392.5,526.0079230333901,392.5,523.50792303339,780,523.50792303339" stroke="#d62728" stroke-width="107.98415393322014"/><title>12 → Dunkerque: 2074</title></g><g style="mix-blend-mode: multiply;"><path d="M5,195.38596491228074C392.5,195.38596491228074,392.5,23.59337860780981,780,23.59337860780981" stroke="#cccccc" stroke-width="1"/><title>[51-100] → Le Pouliguen: 6</title></g><g style="mix-blend-mode: multiply;"><path d="M5,161.4895302773062C392.5,161.4895302773062,392.5,142.2226938313525,780,142.2226938313525" stroke="#cccccc" stroke-width="9.371816638370118"/><title>[101-200] → Bordeaux: 180</title></g><g style="mix-blend-mode: multiply;"><path d="M5,209.5217883418223C392.5,209.5217883418223,392.5,149.95444255800786,780,149.95444255800786" stroke="#cccccc" stroke-width="6.0916808149405774"/><title>[51-100] → Bordeaux: 117</title></g><g style="mix-blend-mode: multiply;"><path d="M5,115.30390492359936C392.5,115.30390492359936,392.5,135.9748160724391,780,135.9748160724391" stroke="#cccccc" stroke-width="3.123938879456706"/><title>[201-500] → Bordeaux: 60</title></g><g style="mix-blend-mode: multiply;"><path d="M5,343.5942275042445C392.5,343.5942275042445,392.5,154.11969439728347,780,154.11969439728347" stroke="#cccccc" stroke-width="2.030560271646859"/><title>[21-50] → Bordeaux: 39</title></g><g style="mix-blend-mode: multiply;"><path d="M5,248.49462365591404C392.5,248.49462365591404,392.5,153.05234861346912,780,153.05234861346912" stroke="#cccccc" stroke-width="1"/><title>[1-20] → Bordeaux: 2</title></g><g style="mix-blend-mode: multiply;"><path d="M5,53.90492359932098C392.5,53.90492359932098,392.5,134.3607809847198,780,134.3607809847198" stroke="#bcbd22" stroke-width="1"/><title>18 → Bordeaux: 2</title></g><g style="mix-blend-mode: multiply;"><path d="M5,0.0520656479909451C392.5,0.0520656479909451,392.5,134.25664968873792,780,134.25664968873792" stroke="#17becf" stroke-width="1"/><title>19 → Bordeaux: 2</title></g><g style="mix-blend-mode: multiply;"><path d="M5,332.50424448217325C392.5,332.50424448217325,392.5,58.20118845500842,780,58.20118845500842" stroke="#cccccc" stroke-width="1"/><title>[21-50] → Rochefort: 3</title></g><g style="mix-blend-mode: multiply;"><path d="M5,151.1805319750991C392.5,151.1805319750991,392.5,57.185908319184996,780,57.185908319184996" stroke="#cccccc" stroke-width="1"/><title>[101-200] → Rochefort: 18</title></g><g style="mix-blend-mode: multiply;"><path d="M5,196.40124504810416C392.5,196.40124504810416,392.5,57.88879456706275,780,57.88879456706275" stroke="#cccccc" stroke-width="1"/><title>[51-100] → Rochefort: 9</title></g><g style="mix-blend-mode: multiply;"><path d="M5,251.72269383135261C392.5,251.72269383135261,392.5,176.53565365025455,780,176.53565365025455" stroke="#cccccc" stroke-width="6.352009054895302"/><title>[1-20] → Roscoff: 122</title></g><g style="mix-blend-mode: multiply;"><path d="M5,345.8590831918506C392.5,345.8590831918506,392.5,180.96123372948486,780,180.96123372948486" stroke="#cccccc" stroke-width="2.499151103565365"/><title>[21-50] → Roscoff: 48</title></g><g style="mix-blend-mode: multiply;"><path d="M5,212.80192416525185C392.5,212.80192416525185,392.5,173.12535370684765,780,173.12535370684765" stroke="#cccccc" stroke-width="1"/><title>[51-100] → Roscoff: 9</title></g><g style="mix-blend-mode: multiply;"><path d="M5,166.25353706847767C392.5,166.25353706847767,392.5,172.81295981890196,780,172.81295981890196" stroke="#cccccc" stroke-width="1"/><title>[101-200] → Roscoff: 3</title></g><g style="mix-blend-mode: multiply;"><path d="M5,26.093378607810045C392.5,26.093378607810045,392.5,160.8118279569892,780,160.8118279569892" stroke="#cccccc" stroke-width="1"/><title>7 → Roscoff: 6</title></g><g style="mix-blend-mode: multiply;"><path d="M5,15.520656479909551C392.5,15.520656479909551,392.5,160.3432371250707,780,160.3432371250707" stroke="#cccccc" stroke-width="1"/><title>9 → Roscoff: 4</title></g><g style="mix-blend-mode: multiply;"><path d="M5,72.44538766270524C392.5,72.44538766270524,392.5,164.76881720430094,780,164.76881720430094" stroke="#cccccc" stroke-width="1.561969439728353"/><title>3 → Roscoff: 30</title></g><g style="mix-blend-mode: multiply;"><path d="M5,37.030560271647026C392.5,37.030560271647026,392.5,161.5407470288624,780,161.5407470288624" stroke="#8c564b" stroke-width="1"/><title>15 → Roscoff: 6</title></g><g style="mix-blend-mode: multiply;"><path d="M5,127.80135823429545C392.5,127.80135823429545,392.5,171.2770232031691,780,171.2770232031691" stroke="#cccccc" stroke-width="2.915676287492926"/><title>2 → Roscoff: 56</title></g><g style="mix-blend-mode: multiply;"><path d="M5,65.98754951895876C392.5,65.98754951895876,392.5,163.51924165251828,780,163.51924165251828" stroke="#cccccc" stroke-width="1"/><title>5 → Roscoff: 18</title></g><g style="mix-blend-mode: multiply;"><path d="M5,48.4363327674025C392.5,48.4363327674025,392.5,161.905206564799,780,161.905206564799" stroke="#cccccc" stroke-width="1"/><title>20 → Roscoff: 8</title></g><g style="mix-blend-mode: multiply;"><path d="M5,85.67345783814379C392.5,85.67345783814379,392.5,165.81013016411987,780,165.81013016411987" stroke="#ff7f0e" stroke-width="1"/><title>10 → Roscoff: 6</title></g><g style="mix-blend-mode: multiply;"><path d="M5,101.92133559705718C392.5,101.92133559705718,392.5,168.20514997170332,780,168.20514997170332" stroke="#cccccc" stroke-width="3.2280701754385963"/><title>4 → Roscoff: 62</title></g><g style="mix-blend-mode: multiply;"><path d="M5,20.72891907187338C392.5,20.72891907187338,392.5,160.55149971703446,780,160.55149971703446" stroke="#9467bd" stroke-width="1"/><title>14 → Roscoff: 4</title></g><g style="mix-blend-mode: multiply;"><path d="M5,60.25863044708552C392.5,60.25863044708552,392.5,162.79032258064504,780,162.79032258064504" stroke="#cccccc" stroke-width="1"/><title>8 → Roscoff: 10</title></g><g style="mix-blend-mode: multiply;"><path d="M5,80.36106395019817C392.5,80.36106395019817,392.5,165.6018675721561,780,165.6018675721561" stroke="#e377c2" stroke-width="1"/><title>16 → Roscoff: 2</title></g><g style="mix-blend-mode: multiply;"><path d="M5,94.47425014148277C392.5,94.47425014148277,392.5,166.27872099603834,780,166.27872099603834" stroke="#cccccc" stroke-width="1"/><title>6 → Roscoff: 12</title></g><g style="mix-blend-mode: multiply;"><path d="M5,31.45783814374665C392.5,31.45783814374665,392.5,161.17628749292578,780,161.17628749292578" stroke="#cccccc" stroke-width="1"/><title>2.5 → Roscoff: 8</title></g><g style="mix-blend-mode: multiply;"><path d="M5,54.165251839275705C392.5,54.165251839275705,392.5,162.32173174872653,780,162.32173174872653" stroke="#bcbd22" stroke-width="1"/><title>18 → Roscoff: 8</title></g><g style="mix-blend-mode: multiply;"><path d="M5,458.53084323712517C392.5,458.53084323712517,392.5,182.26287492925852,780,182.26287492925852" stroke="#d62728" stroke-width="1"/><title>12 → Roscoff: 2</title></g><g style="mix-blend-mode: multiply;"><path d="M5,5.15619694397286C392.5,5.15619694397286,392.5,160.18704018109787,780,160.18704018109787" stroke="#2ca02c" stroke-width="1"/><title>11 → Roscoff: 2</title></g><g style="mix-blend-mode: multiply;"><path d="M5,112.33616298811548C392.5,112.33616298811548,392.5,28.9057724957555,780,28.9057724957555" stroke="#cccccc" stroke-width="1"/><title>[201-500] → La Rochelle: 6</title></g><g style="mix-blend-mode: multiply;"><path d="M5,149.85285795132998C392.5,149.85285795132998,392.5,29.140067911714755,780,29.140067911714755" stroke="#cccccc" stroke-width="1"/><title>[101-200] → La Rochelle: 3</title></g><g style="mix-blend-mode: multiply;"><path d="M5,332.8947368421053C392.5,332.8947368421053,392.5,64.6850594227504,780,64.6850594227504" stroke="#cccccc" stroke-width="1"/><title>[21-50] → Le Croisic: 12</title></g><g style="mix-blend-mode: multiply;"><path d="M5,151.96151669496325C392.5,151.96151669496325,392.5,63.591680814940545,780,63.591680814940545" stroke="#cccccc" stroke-width="1"/><title>[101-200] → Le Croisic: 12</title></g><g style="mix-blend-mode: multiply;"><path d="M5,196.86983588002266C392.5,196.86983588002266,392.5,64.13837011884547,780,64.13837011884547" stroke="#cccccc" stroke-width="1"/><title>[51-100] → Le Croisic: 9</title></g><g style="mix-blend-mode: multiply;"><path d="M5,150.47764572722133C392.5,150.47764572722133,392.5,51.17062818336161,780,51.17062818336161" stroke="#cccccc" stroke-width="1"/><title>[101-200] → Noirmoutier: 9</title></g><g style="mix-blend-mode: multiply;"><path d="M5,332.26994906621394C392.5,332.26994906621394,392.5,51.5611205432937,780,51.5611205432937" stroke="#cccccc" stroke-width="1"/><title>[21-50] → Noirmoutier: 6</title></g><g style="mix-blend-mode: multiply;"><path d="M5,150.08715336728926C392.5,150.08715336728926,392.5,34.37436332767401,780,34.37436332767401" stroke="#cccccc" stroke-width="1"/><title>[101-200] → Marennes: 6</title></g><g style="mix-blend-mode: multiply;"><path d="M5,195.62026032823997C392.5,195.62026032823997,392.5,34.60865874363326,780,34.60865874363326" stroke="#cccccc" stroke-width="1"/><title>[51-100] → Marennes: 3</title></g><g style="mix-blend-mode: multiply;"><path d="M5,198.66610073571024C392.5,198.66610073571024,392.5,85.62054329371807,780,85.62054329371807" stroke="#cccccc" stroke-width="1"/><title>[51-100] → Lorient: 18</title></g><g style="mix-blend-mode: multiply;"><path d="M5,335.7062818336163C392.5,335.7062818336163,392.5,87.9634974533106,780,87.9634974533106" stroke="#cccccc" stroke-width="3.7487266553480474"/><title>[21-50] → Lorient: 72</title></g><g style="mix-blend-mode: multiply;"><path d="M5,112.88285229202042C392.5,112.88285229202042,392.5,84.60526315789465,780,84.60526315789465" stroke="#cccccc" stroke-width="1"/><title>[201-500] → Lorient: 3</title></g><g style="mix-blend-mode: multiply;"><path d="M5,154.22637238256937C392.5,154.22637238256937,392.5,84.91765704584031,780,84.91765704584031" stroke="#cccccc" stroke-width="1"/><title>[101-200] → Lorient: 9</title></g></g><g><text x="9" y="0.052065647990957586" text-anchor="start"><tspan alignment-baseline="middle" x="9" style="font-family: Arial, sans-serif; font-size: 10px; fill: black; font-weight: bold;">19</tspan></text><text x="9" y="5.156196943972873" text-anchor="start"><tspan alignment-baseline="middle" x="9" style="font-family: Arial, sans-serif; font-size: 10px; fill: black; font-weight: bold;">11</tspan></text><text x="776" y="2.578098471986415" text-anchor="end"><tspan alignment-baseline="middle" x="776" style="font-family: Arial, sans-serif; font-size: 10px; fill: black; font-weight: bold;">Brest</tspan></text><text x="776" y="7.734295415959238" text-anchor="end"><tspan alignment-baseline="middle" x="776" style="font-family: Arial, sans-serif; font-size: 10px; fill: black; font-weight: bold;">Mortagne</tspan></text><text x="9" y="10.312393887945746" text-anchor="start"><tspan alignment-baseline="middle" x="9" style="font-family: Arial, sans-serif; font-size: 10px; fill: black; font-weight: bold;">1</tspan></text><text x="9" y="15.520656479909576" text-anchor="start"><tspan alignment-baseline="middle" x="9" style="font-family: Arial, sans-serif; font-size: 10px; fill: black; font-weight: bold;">9</tspan></text><text x="9" y="20.728919071873406" text-anchor="start"><tspan alignment-baseline="middle" x="9" style="font-family: Arial, sans-serif; font-size: 10px; fill: black; font-weight: bold;">14</tspan></text><text x="776" y="12.968590831918481" text-anchor="end"><tspan alignment-baseline="middle" x="776" style="font-family: Arial, sans-serif; font-size: 10px; fill: black; font-weight: bold;">Honfleur</tspan></text><text x="776" y="18.280984719864147" text-anchor="end"><tspan alignment-baseline="middle" x="776" style="font-family: Arial, sans-serif; font-size: 10px; fill: black; font-weight: bold;">Le Tréport</tspan></text><text x="776" y="23.59337860780982" text-anchor="end"><tspan alignment-baseline="middle" x="776" style="font-family: Arial, sans-serif; font-size: 10px; fill: black; font-weight: bold;">Le Pouliguen</tspan></text><text x="9" y="26.041312959819095" text-anchor="start"><tspan alignment-baseline="middle" x="9" style="font-family: Arial, sans-serif; font-size: 10px; fill: black; font-weight: bold;">7</tspan></text><text x="9" y="31.457838143746642" text-anchor="start"><tspan alignment-baseline="middle" x="9" style="font-family: Arial, sans-serif; font-size: 10px; fill: black; font-weight: bold;">2.5</tspan></text><text x="776" y="28.983870967741918" text-anchor="end"><tspan alignment-baseline="middle" x="776" style="font-family: Arial, sans-serif; font-size: 10px; fill: black; font-weight: bold;">La Rochelle</tspan></text><text x="776" y="34.452461799660426" text-anchor="end"><tspan alignment-baseline="middle" x="776" style="font-family: Arial, sans-serif; font-size: 10px; fill: black; font-weight: bold;">Marennes</tspan></text><text x="776" y="39.99915110356535" text-anchor="end"><tspan alignment-baseline="middle" x="776" style="font-family: Arial, sans-serif; font-size: 10px; fill: black; font-weight: bold;">Bayonne</tspan></text><text x="9" y="36.978494623656076" text-anchor="start"><tspan alignment-baseline="middle" x="9" style="font-family: Arial, sans-serif; font-size: 10px; fill: black; font-weight: bold;">15</tspan></text><text x="9" y="42.603282399547396" text-anchor="start"><tspan alignment-baseline="middle" x="9" style="font-family: Arial, sans-serif; font-size: 10px; fill: black; font-weight: bold;">17</tspan></text><text x="776" y="45.62393887945669" text-anchor="end"><tspan alignment-baseline="middle" x="776" style="font-family: Arial, sans-serif; font-size: 10px; fill: black; font-weight: bold;">Gravelines</tspan></text><text x="776" y="51.32682512733442" text-anchor="end"><tspan alignment-baseline="middle" x="776" style="font-family: Arial, sans-serif; font-size: 10px; fill: black; font-weight: bold;">Noirmoutier</tspan></text><text x="9" y="48.3322014714206" text-anchor="start"><tspan alignment-baseline="middle" x="9" style="font-family: Arial, sans-serif; font-size: 10px; fill: black; font-weight: bold;">20</tspan></text><text x="9" y="54.1652518392757" text-anchor="start"><tspan alignment-baseline="middle" x="9" style="font-family: Arial, sans-serif; font-size: 10px; fill: black; font-weight: bold;">18</tspan></text><text x="9" y="60.05036785512175" text-anchor="start"><tspan alignment-baseline="middle" x="9" style="font-family: Arial, sans-serif; font-size: 10px; fill: black; font-weight: bold;">8</tspan></text><text x="9" y="66.03961516694972" text-anchor="start"><tspan alignment-baseline="middle" x="9" style="font-family: Arial, sans-serif; font-size: 10px; fill: black; font-weight: bold;">5</tspan></text><text x="776" y="57.498302207130685" text-anchor="end"><tspan alignment-baseline="middle" x="776" style="font-family: Arial, sans-serif; font-size: 10px; fill: black; font-weight: bold;">Rochefort</tspan></text><text x="9" y="72.3933220147143" text-anchor="start"><tspan alignment-baseline="middle" x="9" style="font-family: Arial, sans-serif; font-size: 10px; fill: black; font-weight: bold;">3</tspan></text><text x="776" y="64.13837011884544" text-anchor="end"><tspan alignment-baseline="middle" x="776" style="font-family: Arial, sans-serif; font-size: 10px; fill: black; font-weight: bold;">Le Croisic</tspan></text><text x="776" y="71.09083191850587" text-anchor="end"><tspan alignment-baseline="middle" x="776" style="font-family: Arial, sans-serif; font-size: 10px; fill: black; font-weight: bold;">Fécamp</tspan></text><text x="9" y="79.31975099037925" text-anchor="start"><tspan alignment-baseline="middle" x="9" style="font-family: Arial, sans-serif; font-size: 10px; fill: black; font-weight: bold;">16</tspan></text><text x="9" y="86.55857385398986" text-anchor="start"><tspan alignment-baseline="middle" x="9" style="font-family: Arial, sans-serif; font-size: 10px; fill: black; font-weight: bold;">10</tspan></text><text x="9" y="93.84946236559142" text-anchor="start"><tspan alignment-baseline="middle" x="9" style="font-family: Arial, sans-serif; font-size: 10px; fill: black; font-weight: bold;">6</tspan></text><text x="776" y="78.35568760611197" text-anchor="end"><tspan alignment-baseline="middle" x="776" style="font-family: Arial, sans-serif; font-size: 10px; fill: black; font-weight: bold;">Nantes</tspan></text><text x="776" y="87.18251273344644" text-anchor="end"><tspan alignment-baseline="middle" x="776" style="font-family: Arial, sans-serif; font-size: 10px; fill: black; font-weight: bold;">Lorient</tspan></text><text x="776" y="97.57130730050928" text-anchor="end"><tspan alignment-baseline="middle" x="776" style="font-family: Arial, sans-serif; font-size: 10px; fill: black; font-weight: bold;">Cherbourg</tspan></text><text x="9" y="103.58743633276742" text-anchor="start"><tspan alignment-baseline="middle" x="9" style="font-family: Arial, sans-serif; font-size: 10px; fill: black; font-weight: bold;">4</tspan></text><text x="776" y="108.8972835314091" text-anchor="end"><tspan alignment-baseline="middle" x="776" style="font-family: Arial, sans-serif; font-size: 10px; fill: black; font-weight: bold;">Granville</tspan></text><text x="9" y="116.3972835314092" text-anchor="start"><tspan alignment-baseline="middle" x="9" style="font-family: Arial, sans-serif; font-size: 10px; fill: black; font-weight: bold;">[201-500]</tspan></text><text x="776" y="123.34719864176564" text-anchor="end"><tspan alignment-baseline="middle" x="776" style="font-family: Arial, sans-serif; font-size: 10px; fill: black; font-weight: bold;">Rouen</tspan></text><text x="9" y="134.882286361064" text-anchor="start"><tspan alignment-baseline="middle" x="9" style="font-family: Arial, sans-serif; font-size: 10px; fill: black; font-weight: bold;">2</tspan></text><text x="776" y="144.66977928692694" text-anchor="end"><tspan alignment-baseline="middle" x="776" style="font-family: Arial, sans-serif; font-size: 10px; fill: black; font-weight: bold;">Bordeaux</tspan></text><text x="776" y="171.2249575551782" text-anchor="end"><tspan alignment-baseline="middle" x="776" style="font-family: Arial, sans-serif; font-size: 10px; fill: black; font-weight: bold;">Roscoff</tspan></text><text x="776" y="198.48302207130723" text-anchor="end"><tspan alignment-baseline="middle" x="776" style="font-family: Arial, sans-serif; font-size: 10px; fill: black; font-weight: bold;">Dieppe</tspan></text><text x="776" y="230.2707979626485" text-anchor="end"><tspan alignment-baseline="middle" x="776" style="font-family: Arial, sans-serif; font-size: 10px; fill: black; font-weight: bold;">Le Havre</tspan></text><text x="9" y="169.68986983588007" text-anchor="start"><tspan alignment-baseline="middle" x="9" style="font-family: Arial, sans-serif; font-size: 10px; fill: black; font-weight: bold;">[101-200]</tspan></text><text x="9" y="217.64402942840977" text-anchor="start"><tspan alignment-baseline="middle" x="9" style="font-family: Arial, sans-serif; font-size: 10px; fill: black; font-weight: bold;">[51-100]</tspan></text><text x="9" y="285.77362761743075" text-anchor="start"><tspan alignment-baseline="middle" x="9" style="font-family: Arial, sans-serif; font-size: 10px; fill: black; font-weight: bold;">[1-20]</tspan></text><text x="9" y="392.1714770797963" text-anchor="start"><tspan alignment-baseline="middle" x="9" style="font-family: Arial, sans-serif; font-size: 10px; fill: black; font-weight: bold;">[21-50]</tspan></text><text x="9" y="518.9269949066214" text-anchor="start"><tspan alignment-baseline="middle" x="9" style="font-family: Arial, sans-serif; font-size: 10px; fill: black; font-weight: bold;">12</tspan></text><text x="776" y="314.46264855687605" text-anchor="end"><tspan alignment-baseline="middle" x="776" style="font-family: Arial, sans-serif; font-size: 10px; fill: black; font-weight: bold;">Calais</tspan></text><text x="776" y="480.26740237691" text-anchor="end"><tspan alignment-baseline="middle" x="776" style="font-family: Arial, sans-serif; font-size: 10px; fill: black; font-weight: bold;">Dunkerque</tspan></text></g><g><text x="2.5" y="-4" text-anchor="middle" style="font-family: Arial, sans-serif; font-size: 12px; fill: rgb(123, 123, 123); font-weight: bold;">tonnage</text><text x="782.5" y="-1.5" text-anchor="middle" style="font-family: Arial, sans-serif; font-size: 12px; fill: rgb(123, 123, 123); font-weight: bold;">port</text></g></g></svg>