<svg xmlns="http://www.w3.org/2000/svg" width="805" height="600"><rect width="805" height="600" x="0" y="0" fill="#FFFFFF" id="backgorund"/><g transform="translate(10,10)" id="visualization"><g><rect x="780" y="5.684341886080802e-14" height="0.15789473684210975" width="5" fill="black"><title>Brest: 1</title></rect><rect x="780" y="5.157894736842167" height="0.15789473684210975" width="5" fill="black"><title>Mortagne: 1</title></rect><rect x="780" y="10.315789473684276" height="0.3157894736842106" width="5" fill="black"><title>Honfleur: 2</title></rect><rect x="780" y="15.631578947368487" height="0.3157894736842053" width="5" fill="black"><title>Le Tréport: 2</title></rect><rect x="780" y="20.947368421052694" height="0.3157894736842195" width="5" fill="black"><title>Le Pouliguen: 2</title></rect><rect x="780" y="26.263157894736914" height="0.47368421052631504" width="5" fill="black"><title>Marennes: 3</title></rect><rect x="780" y="31.73684210526323" height="0.47368421052632925" width="5" fill="black"><title>La Rochelle: 3</title></rect><rect x="780" y="37.21052631578956" height="0.6315789473684248" width="5" fill="black"><title>Gravelines: 4</title></rect><rect x="780" y="42.84210526315798" height="0.6315789473684248" width="5" fill="black"><title>Bayonne: 4</title></rect><rect x="780" y="48.47368421052641" height="0.7894736842105203" width="5" fill="black"><title>Noirmoutier: 5</title></rect><rect x="780" y="54.26315789473693" height="1.5789473684210549" width="5" fill="black"><title>Rochefort: 10</title></rect><rect x="780" y="60.84210526315798" height="1.736842105263122" width="5" fill="black"><title>Le Croisic: 11</title></rect><rect x="780" y="67.5789473684211" height="2.2105263157894797" width="5" fill="black"><title>Fécamp: 14</title></rect><rect x="780" y="74.78947368421058" height="2.368421052631575" width="5" fill="black"><title>Nantes: 15</title></rect><rect x="780" y="82.15789473684215" height="5.368421052631561" width="5" fill="black"><title>Lorient: 34</title></rect><rect x="780" y="92.52631578947371" height="5.526315789473642" width="5" fill="black"><title>Cherbourg: 35</title></rect><rect x="780" y="103.05263157894736" height="7.263157894736835" width="5" fill="black"><title>Granville: 46</title></rect><rect x="0" y="47.5" height="8.5263157894737" width="5" fill="black"><title>5 - [201-500]: 54</title></rect><rect x="780" y="115.31578947368419" height="11.84210526315789" width="5" fill="black"><title>Rouen: 75</title></rect><rect x="780" y="132.15789473684208" height="21.15789473684211" width="5" fill="black"><title>Bordeaux: 134</title></rect><rect x="780" y="158.3157894736842" height="22.42105263157896" width="5" fill="black"><title>Roscoff: 142</title></rect><rect x="780" y="185.73684210526315" height="22.57894736842104" width="5" fill="black"><title>Dieppe: 143</title></rect><rect x="780" y="213.3157894736842" height="31.57894736842104" width="5" fill="black"><title>Le Havre: 200</title></rect><rect x="0" y="61.0263157894737" height="41.5263157894737" width="5" fill="black"><title>4 - [101-200]: 263</title></rect><rect x="0" y="107.5526315789474" height="45.31578947368416" width="5" fill="black"><title>3 - [51-100]: 287</title></rect><rect x="0" y="157.86842105263156" height="122.68421052631578" width="5" fill="black"><title>2 -[21-50]: 777</title></rect><rect x="780" y="249.89473684210523" height="128.5263157894736" width="5" fill="black"><title>Calais: 814</title></rect><rect x="780" y="383.42105263157885" height="196.57894736842104" width="5" fill="black"><title>Dunkerque: 1245</title></rect><rect x="0" y="285.55263157894734" height="246.94736842105266" width="5" fill="black"><title>1 - [1-20]: 1564</title></rect></g><g fill="none" stroke-opacity="1"><g style="mix-blend-mode: multiply;"><path d="M5,285.6315789473684C392.5,285.6315789473684,392.5,10.552631578947434,780,10.552631578947434" stroke="#1f77b4" stroke-width="1"/><title>1 - [1-20] → Honfleur: 1</title></g><g style="mix-blend-mode: multiply;"><path d="M5,61.26315789473686C392.5,61.26315789473686,392.5,10.39473684210533,780,10.39473684210533" stroke="#d62728" stroke-width="1"/><title>4 - [101-200] → Honfleur: 1</title></g><g style="mix-blend-mode: multiply;"><path d="M5,180.05263157894734C392.5,180.05263157894734,392.5,194.6578947368421,780,194.6578947368421" stroke="#ff7f0e" stroke-width="12.789473684210526"/><title>2 -[21-50] → Dieppe: 81</title></g><g style="mix-blend-mode: multiply;"><path d="M5,52.71052631578947C392.5,52.71052631578947,392.5,186.21052631578948,780,186.21052631578948" stroke="#9467bd" stroke-width="1"/><title>5 - [201-500] → Dieppe: 6</title></g><g style="mix-blend-mode: multiply;"><path d="M5,319.02631578947364C392.5,319.02631578947364,392.5,204.68421052631578,780,204.68421052631578" stroke="#1f77b4" stroke-width="7.263157894736842"/><title>1 - [1-20] → Dieppe: 46</title></g><g style="mix-blend-mode: multiply;"><path d="M5,79.02631578947368C392.5,79.02631578947368,392.5,187.3157894736842,780,187.3157894736842" stroke="#d62728" stroke-width="1.263157894736842"/><title>4 - [101-200] → Dieppe: 8</title></g><g style="mix-blend-mode: multiply;"><path d="M5,125.7105263157895C392.5,125.7105263157895,392.5,188.10526315789474,780,188.10526315789474" stroke="#2ca02c" stroke-width="1"/><title>3 - [51-100] → Dieppe: 2</title></g><g style="mix-blend-mode: multiply;"><path d="M5,61.81578947368422C392.5,61.81578947368422,392.5,26.42105263157902,780,26.42105263157902" stroke="#d62728" stroke-width="1"/><title>4 - [101-200] → Marennes: 2</title></g><g style="mix-blend-mode: multiply;"><path d="M5,107.94736842105266C392.5,107.94736842105266,392.5,26.657894736842174,780,26.657894736842174" stroke="#2ca02c" stroke-width="1"/><title>3 - [51-100] → Marennes: 1</title></g><g style="mix-blend-mode: multiply;"><path d="M5,73.5C392.5,73.5,392.5,140.05263157894734,780,140.05263157894734" stroke="#d62728" stroke-width="9.473684210526315"/><title>4 - [101-200] → Bordeaux: 60</title></g><g style="mix-blend-mode: multiply;"><path d="M5,122.00000000000001C392.5,122.00000000000001,392.5,147.86842105263156,780,147.86842105263156" stroke="#2ca02c" stroke-width="6.157894736842105"/><title>3 - [51-100] → Bordeaux: 39</title></g><g style="mix-blend-mode: multiply;"><path d="M5,50.65789473684211C392.5,50.65789473684211,392.5,133.73684210526312,780,133.73684210526312" stroke="#9467bd" stroke-width="3.1578947368421053"/><title>5 - [201-500] → Bordeaux: 20</title></g><g style="mix-blend-mode: multiply;"><path d="M5,170.1052631578947C392.5,170.1052631578947,392.5,151.9736842105263,780,151.9736842105263" stroke="#ff7f0e" stroke-width="2.052631578947368"/><title>2 -[21-50] → Bordeaux: 13</title></g><g style="mix-blend-mode: multiply;"><path d="M5,295.97368421052624C392.5,295.97368421052624,392.5,153.1578947368421,780,153.1578947368421" stroke="#1f77b4" stroke-width="1"/><title>1 - [1-20] → Bordeaux: 2</title></g><g style="mix-blend-mode: multiply;"><path d="M5,158.26315789473682C392.5,158.26315789473682,392.5,37.60526315789482,780,37.60526315789482" stroke="#ff7f0e" stroke-width="1"/><title>2 -[21-50] → Gravelines: 3</title></g><g style="mix-blend-mode: multiply;"><path d="M5,108.10526315789477C392.5,108.10526315789477,392.5,37.28947368421061,780,37.28947368421061" stroke="#2ca02c" stroke-width="1"/><title>3 - [51-100] → Gravelines: 1</title></g><g style="mix-blend-mode: multiply;"><path d="M5,115.92105263157896C392.5,115.92105263157896,392.5,119.73684210526314,780,119.73684210526314" stroke="#2ca02c" stroke-width="6"/><title>3 - [51-100] → Rouen: 38</title></g><g style="mix-blend-mode: multiply;"><path d="M5,166.86842105263156C392.5,166.86842105263156,392.5,124.94736842105262,780,124.94736842105262" stroke="#ff7f0e" stroke-width="4.421052631578947"/><title>2 -[21-50] → Rouen: 28</title></g><g style="mix-blend-mode: multiply;"><path d="M5,68.05263157894737C392.5,68.05263157894737,392.5,116.02631578947367,780,116.02631578947367" stroke="#d62728" stroke-width="1.4210526315789473"/><title>4 - [101-200] → Rouen: 9</title></g><g style="mix-blend-mode: multiply;"><path d="M5,158.89473684210526C392.5,158.89473684210526,392.5,55.76315789473693,780,55.76315789473693" stroke="#ff7f0e" stroke-width="1"/><title>2 -[21-50] → Rochefort: 1</title></g><g style="mix-blend-mode: multiply;"><path d="M5,63.07894736842106C392.5,63.07894736842106,392.5,54.73684210526324,780,54.73684210526324" stroke="#d62728" stroke-width="1"/><title>4 - [101-200] → Rochefort: 6</title></g><g style="mix-blend-mode: multiply;"><path d="M5,108.7368421052632C392.5,108.7368421052632,392.5,55.447368421052715,780,55.447368421052715" stroke="#2ca02c" stroke-width="1"/><title>3 - [51-100] → Rochefort: 3</title></g><g style="mix-blend-mode: multiply;"><path d="M5,62.36842105263159C392.5,62.36842105263159,392.5,48.710526315789565,780,48.710526315789565" stroke="#d62728" stroke-width="1"/><title>4 - [101-200] → Noirmoutier: 3</title></g><g style="mix-blend-mode: multiply;"><path d="M5,158.6578947368421C392.5,158.6578947368421,392.5,49.105263157894825,780,49.105263157894825" stroke="#ff7f0e" stroke-width="1"/><title>2 -[21-50] → Noirmoutier: 2</title></g><g style="mix-blend-mode: multiply;"><path d="M5,292.1842105263158C392.5,292.1842105263158,392.5,106.68421052631578,780,106.68421052631578" stroke="#1f77b4" stroke-width="7.263157894736842"/><title>1 - [1-20] → Granville: 46</title></g><g style="mix-blend-mode: multiply;"><path d="M5,61.50000000000001C392.5,61.50000000000001,392.5,15.789473684210591,780,15.789473684210591" stroke="#d62728" stroke-width="1"/><title>4 - [101-200] → Le Tréport: 2</title></g><g style="mix-blend-mode: multiply;"><path d="M5,65.52631578947368C392.5,65.52631578947368,392.5,75.18421052631584,780,75.18421052631584" stroke="#d62728" stroke-width="1"/><title>4 - [101-200] → Nantes: 5</title></g><g style="mix-blend-mode: multiply;"><path d="M5,110.15789473684212C392.5,110.15789473684212,392.5,75.97368421052636,780,75.97368421052636" stroke="#2ca02c" stroke-width="1"/><title>3 - [51-100] → Nantes: 5</title></g><g style="mix-blend-mode: multiply;"><path d="M5,286.7368421052631C392.5,286.7368421052631,392.5,77.0789473684211,780,77.0789473684211" stroke="#1f77b4" stroke-width="1"/><title>1 - [1-20] → Nantes: 1</title></g><g style="mix-blend-mode: multiply;"><path d="M5,159.92105263157896C392.5,159.92105263157896,392.5,76.68421052631582,780,76.68421052631582" stroke="#ff7f0e" stroke-width="1"/><title>2 -[21-50] → Nantes: 4</title></g><g style="mix-blend-mode: multiply;"><path d="M5,108.34210526315793C392.5,108.34210526315793,392.5,43.3157894736843,780,43.3157894736843" stroke="#2ca02c" stroke-width="1"/><title>3 - [51-100] → Bayonne: 2</title></g><g style="mix-blend-mode: multiply;"><path d="M5,47.973684210526315C392.5,47.973684210526315,392.5,43.000000000000085,780,43.000000000000085" stroke="#9467bd" stroke-width="1"/><title>5 - [201-500] → Bayonne: 2</title></g><g style="mix-blend-mode: multiply;"><path d="M5,107.71052631578951C392.5,107.71052631578951,392.5,21.1052631578948,780,21.1052631578948" stroke="#2ca02c" stroke-width="1"/><title>3 - [51-100] → Le Pouliguen: 2</title></g><g style="mix-blend-mode: multiply;"><path d="M5,305.7631578947368C392.5,305.7631578947368,392.5,171.1052631578947,780,171.1052631578947" stroke="#1f77b4" stroke-width="19.263157894736842"/><title>1 - [1-20] → Roscoff: 122</title></g><g style="mix-blend-mode: multiply;"><path d="M5,172.39473684210526C392.5,172.39473684210526,392.5,160.21052631578948,780,160.21052631578948" stroke="#ff7f0e" stroke-width="2.526315789473684"/><title>2 -[21-50] → Roscoff: 16</title></g><g style="mix-blend-mode: multiply;"><path d="M5,125.31578947368423C392.5,125.31578947368423,392.5,158.71052631578945,780,158.71052631578945" stroke="#2ca02c" stroke-width="1"/><title>3 - [51-100] → Roscoff: 3</title></g><g style="mix-blend-mode: multiply;"><path d="M5,78.3157894736842C392.5,78.3157894736842,392.5,158.39473684210523,780,158.39473684210523" stroke="#d62728" stroke-width="1"/><title>4 - [101-200] → Roscoff: 1</title></g><g style="mix-blend-mode: multiply;"><path d="M5,47.6578947368421C392.5,47.6578947368421,392.5,31.894736842105335,780,31.894736842105335" stroke="#9467bd" stroke-width="1"/><title>5 - [201-500] → La Rochelle: 2</title></g><g style="mix-blend-mode: multiply;"><path d="M5,62.052631578947384C392.5,62.052631578947384,392.5,32.131578947368496,780,32.131578947368496" stroke="#d62728" stroke-width="1"/><title>4 - [101-200] → La Rochelle: 1</title></g><g style="mix-blend-mode: multiply;"><path d="M5,157.9473684210526C392.5,157.9473684210526,392.5,0.07894736842110947,780,0.07894736842110947" stroke="#ff7f0e" stroke-width="1"/><title>2 -[21-50] → Brest: 1</title></g><g style="mix-blend-mode: multiply;"><path d="M5,61.105263157894754C392.5,61.105263157894754,392.5,5.236842105263219,780,5.236842105263219" stroke="#d62728" stroke-width="1"/><title>4 - [101-200] → Mortagne: 1</title></g><g style="mix-blend-mode: multiply;"><path d="M5,346.4999999999999C392.5,346.4999999999999,392.5,356.1578947368421,780,356.1578947368421" stroke="#1f77b4" stroke-width="44.526315789473685"/><title>1 - [1-20] → Calais: 282</title></g><g style="mix-blend-mode: multiply;"><path d="M5,234.68421052631575C392.5,234.68421052631575,392.5,292.2894736842105,780,292.2894736842105" stroke="#ff7f0e" stroke-width="83.21052631578947"/><title>2 -[21-50] → Calais: 527</title></g><g style="mix-blend-mode: multiply;"><path d="M5,135.10526315789474C392.5,135.10526315789474,392.5,250.4473684210526,780,250.4473684210526" stroke="#2ca02c" stroke-width="1"/><title>3 - [51-100] → Calais: 3</title></g><g style="mix-blend-mode: multiply;"><path d="M5,55.94736842105263C392.5,55.94736842105263,392.5,249.97368421052627,780,249.97368421052627" stroke="#9467bd" stroke-width="1"/><title>5 - [201-500] → Calais: 1</title></g><g style="mix-blend-mode: multiply;"><path d="M5,91.42105263157895C392.5,91.42105263157895,392.5,250.13157894736838,780,250.13157894736838" stroke="#d62728" stroke-width="1"/><title>4 - [101-200] → Calais: 1</title></g><g style="mix-blend-mode: multiply;"><path d="M5,450.6315789473683C392.5,450.6315789473683,392.5,498.13157894736827,780,498.13157894736827" stroke="#1f77b4" stroke-width="163.73684210526315"/><title>1 - [1-20] → Dunkerque: 1037</title></g><g style="mix-blend-mode: multiply;"><path d="M5,97.02631578947368C392.5,97.02631578947368,392.5,388.94736842105254,780,388.94736842105254" stroke="#d62728" stroke-width="11.052631578947368"/><title>4 - [101-200] → Dunkerque: 70</title></g><g style="mix-blend-mode: multiply;"><path d="M5,278.4210526315789C392.5,278.4210526315789,392.5,414.1315789473683,780,414.1315789473683" stroke="#ff7f0e" stroke-width="4.263157894736842"/><title>2 -[21-50] → Dunkerque: 27</title></g><g style="mix-blend-mode: multiply;"><path d="M5,144.10526315789477C392.5,144.10526315789477,392.5,403.236842105263,780,403.236842105263" stroke="#2ca02c" stroke-width="17.526315789473685"/><title>3 - [51-100] → Dunkerque: 111</title></g><g style="mix-blend-mode: multiply;"><path d="M5,85.49999999999999C392.5,85.49999999999999,392.5,221.84210526315786,780,221.84210526315786" stroke="#d62728" stroke-width="11.68421052631579"/><title>4 - [101-200] → Le Havre: 74</title></g><g style="mix-blend-mode: multiply;"><path d="M5,54.526315789473685C392.5,54.526315789473685,392.5,214.65789473684208,780,214.65789473684208" stroke="#9467bd" stroke-width="2.6842105263157894"/><title>5 - [201-500] → Le Havre: 17</title></g><g style="mix-blend-mode: multiply;"><path d="M5,130.3684210526316C392.5,130.3684210526316,392.5,232.18421052631575,780,232.18421052631575" stroke="#2ca02c" stroke-width="9"/><title>3 - [51-100] → Le Havre: 57</title></g><g style="mix-blend-mode: multiply;"><path d="M5,189.76315789473682C392.5,189.76315789473682,392.5,239.99999999999997,780,239.99999999999997" stroke="#ff7f0e" stroke-width="6.63157894736842"/><title>2 -[21-50] → Le Havre: 42</title></g><g style="mix-blend-mode: multiply;"><path d="M5,323.44736842105254C392.5,323.44736842105254,392.5,244.10526315789468,780,244.10526315789468" stroke="#1f77b4" stroke-width="1.5789473684210527"/><title>1 - [1-20] → Le Havre: 10</title></g><g style="mix-blend-mode: multiply;"><path d="M5,159.28947368421055C392.5,159.28947368421055,392.5,62.26315789473693,780,62.26315789473693" stroke="#ff7f0e" stroke-width="1"/><title>2 -[21-50] → Le Croisic: 4</title></g><g style="mix-blend-mode: multiply;"><path d="M5,63.86842105263159C392.5,63.86842105263159,392.5,61.157894736842195,780,61.157894736842195" stroke="#d62728" stroke-width="1"/><title>4 - [101-200] → Le Croisic: 4</title></g><g style="mix-blend-mode: multiply;"><path d="M5,109.21052631578951C392.5,109.21052631578951,392.5,61.71052631578956,780,61.71052631578956" stroke="#2ca02c" stroke-width="1"/><title>3 - [51-100] → Le Croisic: 3</title></g><g style="mix-blend-mode: multiply;"><path d="M5,64.65789473684211C392.5,64.65789473684211,392.5,68.05263157894741,780,68.05263157894741" stroke="#d62728" stroke-width="1"/><title>4 - [101-200] → Fécamp: 6</title></g><g style="mix-blend-mode: multiply;"><path d="M5,286.1842105263157C392.5,286.1842105263157,392.5,69.31578947368425,780,69.31578947368425" stroke="#1f77b4" stroke-width="1"/><title>1 - [1-20] → Fécamp: 6</title></g><g style="mix-blend-mode: multiply;"><path d="M5,109.60526315789477C392.5,109.60526315789477,392.5,68.68421052631584,780,68.68421052631584" stroke="#2ca02c" stroke-width="1"/><title>3 - [51-100] → Fécamp: 2</title></g><g style="mix-blend-mode: multiply;"><path d="M5,287.6842105263157C392.5,287.6842105263157,392.5,97.18421052631581,780,97.18421052631581" stroke="#1f77b4" stroke-width="1.7368421052631577"/><title>1 - [1-20] → Cherbourg: 11</title></g><g style="mix-blend-mode: multiply;"><path d="M5,112.2105263157895C392.5,112.2105263157895,392.5,94.97368421052634,780,94.97368421052634" stroke="#2ca02c" stroke-width="1.4210526315789473"/><title>3 - [51-100] → Cherbourg: 9</title></g><g style="mix-blend-mode: multiply;"><path d="M5,48.68421052631579C392.5,48.68421052631579,392.5,92.92105263157897,780,92.92105263157897" stroke="#9467bd" stroke-width="1"/><title>5 - [201-500] → Cherbourg: 5</title></g><g style="mix-blend-mode: multiply;"><path d="M5,164.3421052631579C392.5,164.3421052631579,392.5,96.00000000000001,780,96.00000000000001" stroke="#ff7f0e" stroke-width="1"/><title>2 -[21-50] → Cherbourg: 4</title></g><g style="mix-blend-mode: multiply;"><path d="M5,66.86842105263158C392.5,66.86842105263158,392.5,93.78947368421055,780,93.78947368421055" stroke="#d62728" stroke-width="1"/><title>4 - [101-200] → Cherbourg: 6</title></g><g style="mix-blend-mode: multiply;"><path d="M5,111.0263157894737C392.5,111.0263157894737,392.5,83.26315789473689,780,83.26315789473689" stroke="#2ca02c" stroke-width="1"/><title>3 - [51-100] → Lorient: 6</title></g><g style="mix-blend-mode: multiply;"><path d="M5,162.1315789473684C392.5,162.1315789473684,392.5,85.63157894736847,780,85.63157894736847" stroke="#ff7f0e" stroke-width="3.789473684210526"/><title>2 -[21-50] → Lorient: 24</title></g><g style="mix-blend-mode: multiply;"><path d="M5,48.21052631578948C392.5,48.21052631578948,392.5,82.23684210526321,780,82.23684210526321" stroke="#9467bd" stroke-width="1"/><title>5 - [201-500] → Lorient: 1</title></g><g style="mix-blend-mode: multiply;"><path d="M5,66.15789473684211C392.5,66.15789473684211,392.5,82.55263157894743,780,82.55263157894743" stroke="#d62728" stroke-width="1"/><title>4 - [101-200] → Lorient: 3</title></g></g><g><text x="776" y="0.07894736842111172" text-anchor="end"><tspan alignment-baseline="middle" x="776" style="font-family: Arial, sans-serif; font-size: 10px; fill: black; font-weight: bold;">Brest</tspan></text><text x="776" y="5.2368421052632215" text-anchor="end"><tspan alignment-baseline="middle" x="776" style="font-family: Arial, sans-serif; font-size: 10px; fill: black; font-weight: bold;">Mortagne</tspan></text><text x="776" y="10.473684210526383" text-anchor="end"><tspan alignment-baseline="middle" x="776" style="font-family: Arial, sans-serif; font-size: 10px; fill: black; font-weight: bold;">Honfleur</tspan></text><text x="776" y="15.78947368421059" text-anchor="end"><tspan alignment-baseline="middle" x="776" style="font-family: Arial, sans-serif; font-size: 10px; fill: black; font-weight: bold;">Le Tréport</tspan></text><text x="776" y="21.105263157894804" text-anchor="end"><tspan alignment-baseline="middle" x="776" style="font-family: Arial, sans-serif; font-size: 10px; fill: black; font-weight: bold;">Le Pouliguen</tspan></text><text x="776" y="26.50000000000007" text-anchor="end"><tspan alignment-baseline="middle" x="776" style="font-family: Arial, sans-serif; font-size: 10px; fill: black; font-weight: bold;">Marennes</tspan></text><text x="776" y="31.973684210526393" text-anchor="end"><tspan alignment-baseline="middle" x="776" style="font-family: Arial, sans-serif; font-size: 10px; fill: black; font-weight: bold;">La Rochelle</tspan></text><text x="776" y="37.52631578947377" text-anchor="end"><tspan alignment-baseline="middle" x="776" style="font-family: Arial, sans-serif; font-size: 10px; fill: black; font-weight: bold;">Gravelines</tspan></text><text x="776" y="43.157894736842195" text-anchor="end"><tspan alignment-baseline="middle" x="776" style="font-family: Arial, sans-serif; font-size: 10px; fill: black; font-weight: bold;">Bayonne</tspan></text><text x="776" y="48.86842105263167" text-anchor="end"><tspan alignment-baseline="middle" x="776" style="font-family: Arial, sans-serif; font-size: 10px; fill: black; font-weight: bold;">Noirmoutier</tspan></text><text x="776" y="55.052631578947455" text-anchor="end"><tspan alignment-baseline="middle" x="776" style="font-family: Arial, sans-serif; font-size: 10px; fill: black; font-weight: bold;">Rochefort</tspan></text><text x="776" y="61.710526315789544" text-anchor="end"><tspan alignment-baseline="middle" x="776" style="font-family: Arial, sans-serif; font-size: 10px; fill: black; font-weight: bold;">Le Croisic</tspan></text><text x="776" y="68.68421052631584" text-anchor="end"><tspan alignment-baseline="middle" x="776" style="font-family: Arial, sans-serif; font-size: 10px; fill: black; font-weight: bold;">Fécamp</tspan></text><text x="776" y="75.97368421052636" text-anchor="end"><tspan alignment-baseline="middle" x="776" style="font-family: Arial, sans-serif; font-size: 10px; fill: black; font-weight: bold;">Nantes</tspan></text><text x="776" y="84.84210526315793" text-anchor="end"><tspan alignment-baseline="middle" x="776" style="font-family: Arial, sans-serif; font-size: 10px; fill: black; font-weight: bold;">Lorient</tspan></text><text x="776" y="95.28947368421053" text-anchor="end"><tspan alignment-baseline="middle" x="776" style="font-family: Arial, sans-serif; font-size: 10px; fill: black; font-weight: bold;">Cherbourg</tspan></text><text x="776" y="106.68421052631578" text-anchor="end"><tspan alignment-baseline="middle" x="776" style="font-family: Arial, sans-serif; font-size: 10px; fill: black; font-weight: bold;">Granville</tspan></text><text x="9" y="51.76315789473685" text-anchor="start"><tspan alignment-baseline="middle" x="9" style="font-family: Arial, sans-serif; font-size: 10px; fill: black; font-weight: bold;">5 - [201-500]</tspan></text><text x="776" y="121.23684210526314" text-anchor="end"><tspan alignment-baseline="middle" x="776" style="font-family: Arial, sans-serif; font-size: 10px; fill: black; font-weight: bold;">Rouen</tspan></text><text x="776" y="142.73684210526312" text-anchor="end"><tspan alignment-baseline="middle" x="776" style="font-family: Arial, sans-serif; font-size: 10px; fill: black; font-weight: bold;">Bordeaux</tspan></text><text x="776" y="169.52631578947367" text-anchor="end"><tspan alignment-baseline="middle" x="776" style="font-family: Arial, sans-serif; font-size: 10px; fill: black; font-weight: bold;">Roscoff</tspan></text><text x="776" y="197.02631578947367" text-anchor="end"><tspan alignment-baseline="middle" x="776" style="font-family: Arial, sans-serif; font-size: 10px; fill: black; font-weight: bold;">Dieppe</tspan></text><text x="776" y="229.1052631578947" text-anchor="end"><tspan alignment-baseline="middle" x="776" style="font-family: Arial, sans-serif; font-size: 10px; fill: black; font-weight: bold;">Le Havre</tspan></text><text x="9" y="81.78947368421055" text-anchor="start"><tspan alignment-baseline="middle" x="9" style="font-family: Arial, sans-serif; font-size: 10px; fill: black; font-weight: bold;">4 - [101-200]</tspan></text><text x="9" y="130.21052631578948" text-anchor="start"><tspan alignment-baseline="middle" x="9" style="font-family: Arial, sans-serif; font-size: 10px; fill: black; font-weight: bold;">3 - [51-100]</tspan></text><text x="9" y="219.21052631578945" text-anchor="start"><tspan alignment-baseline="middle" x="9" style="font-family: Arial, sans-serif; font-size: 10px; fill: black; font-weight: bold;">2 -[21-50]</tspan></text><text x="776" y="314.157894736842" text-anchor="end"><tspan alignment-baseline="middle" x="776" style="font-family: Arial, sans-serif; font-size: 10px; fill: black; font-weight: bold;">Calais</tspan></text><text x="776" y="481.71052631578937" text-anchor="end"><tspan alignment-baseline="middle" x="776" style="font-family: Arial, sans-serif; font-size: 10px; fill: black; font-weight: bold;">Dunkerque</tspan></text><text x="9" y="409.02631578947364" text-anchor="start"><tspan alignment-baseline="middle" x="9" style="font-family: Arial, sans-serif; font-size: 10px; fill: black; font-weight: bold;">1 - [1-20]</tspan></text></g><g><text x="782.5" y="-3.999999999999943" text-anchor="middle" style="font-family: Arial, sans-serif; font-size: 12px; fill: rgb(123, 123, 123); font-weight: bold;">port</text><text x="2.5" y="43.5" text-anchor="middle" style="font-family: Arial, sans-serif; font-size: 12px; fill: rgb(123, 123, 123); font-weight: bold;">tonnage</text></g></g></svg>