<svg xmlns="http://www.w3.org/2000/svg" width="1005" height="600"><rect width="1005" height="600" x="0" y="0" fill="#FFFFFF" id="backgorund"/><g id="viz"><clipPath id="serieClipPath"><rect x="-70" y="-30" width="805" height="600"/></clipPath><g transform="translate(0,0)"><g transform="translate(70,30)" clip-path="url(#serieClipPath)"><g id="axis"><g transform="translate(0,540)" fill="none" font-size="10" font-family="sans-serif" text-anchor="middle"><path class="domain" stroke="currentColor" d="M0.5,6V0.5H720.5V6"/><g class="tick" opacity="1" transform="translate(0.5,0)"><line stroke="currentColor" y2="6"/><text fill="currentColor" y="9" dy="0.71em">1,762</text></g><g class="tick" opacity="1" transform="translate(48.5,0)"><line stroke="currentColor" y2="6"/><text fill="currentColor" y="9" dy="0.71em">1,764</text></g><g class="tick" opacity="1" transform="translate(96.5,0)"><line stroke="currentColor" y2="6"/><text fill="currentColor" y="9" dy="0.71em">1,766</text></g><g class="tick" opacity="1" transform="translate(144.5,0)"><line stroke="currentColor" y2="6"/><text fill="currentColor" y="9" dy="0.71em">1,768</text></g><g class="tick" opacity="1" transform="translate(192.5,0)"><line stroke="currentColor" y2="6"/><text fill="currentColor" y="9" dy="0.71em">1,770</text></g><g class="tick" opacity="1" transform="translate(240.5,0)"><line stroke="currentColor" y2="6"/><text fill="currentColor" y="9" dy="0.71em">1,772</text></g><g class="tick" opacity="1" transform="translate(288.5,0)"><line stroke="currentColor" y2="6"/><text fill="currentColor" y="9" dy="0.71em">1,774</text></g><g class="tick" opacity="1" transform="translate(336.5,0)"><line stroke="currentColor" y2="6"/><text fill="currentColor" y="9" dy="0.71em">1,776</text></g><g class="tick" opacity="1" transform="translate(384.5,0)"><line stroke="currentColor" y2="6"/><text fill="currentColor" y="9" dy="0.71em">1,778</text></g><g class="tick" opacity="1" transform="translate(432.5,0)"><line stroke="currentColor" y2="6"/><text fill="currentColor" y="9" dy="0.71em">1,780</text></g><g class="tick" opacity="1" transform="translate(480.5,0)"><line stroke="currentColor" y2="6"/><text fill="currentColor" y="9" dy="0.71em">1,782</text></g><g class="tick" opacity="1" transform="translate(528.5,0)"><line stroke="currentColor" y2="6"/><text fill="currentColor" y="9" dy="0.71em">1,784</text></g><g class="tick" opacity="1" transform="translate(576.5,0)"><line stroke="currentColor" y2="6"/><text fill="currentColor" y="9" dy="0.71em">1,786</text></g><g class="tick" opacity="1" transform="translate(624.5,0)"><line stroke="currentColor" y2="6"/><text fill="currentColor" y="9" dy="0.71em">1,788</text></g><g class="tick" opacity="1" transform="translate(672.5,0)"><line stroke="currentColor" y2="6"/><text fill="currentColor" y="9" dy="0.71em">1,790</text></g><g class="tick" opacity="1" transform="translate(720.5,0)"><line stroke="currentColor" y2="6"/><text fill="currentColor" y="9" dy="0.71em">1,792</text></g><text x="720" dy="-5" text-anchor="end" style="font-family: Arial, sans-serif; font-size: 12px; fill: rgb(123, 123, 123); font-weight: bold;">Année</text></g><g transform="translate(0,0)" fill="none" font-size="10" font-family="sans-serif" text-anchor="end"><path class="domain" stroke="currentColor" d="M0.5,540.5V0.5"/><g class="tick" opacity="1" transform="translate(0,540.5)"><line stroke="currentColor" x2="-6"/><text fill="currentColor" x="-9" dy="0.32em">0</text></g><g class="tick" opacity="1" transform="translate(0,486.5)"><line stroke="currentColor" x2="-6"/><text fill="currentColor" x="-9" dy="0.32em">200,000</text></g><g class="tick" opacity="1" transform="translate(0,432.5)"><line stroke="currentColor" x2="-6"/><text fill="currentColor" x="-9" dy="0.32em">400,000</text></g><g class="tick" opacity="1" transform="translate(0,378.5)"><line stroke="currentColor" x2="-6"/><text fill="currentColor" x="-9" dy="0.32em">600,000</text></g><g class="tick" opacity="1" transform="translate(0,324.5)"><line stroke="currentColor" x2="-6"/><text fill="currentColor" x="-9" dy="0.32em">800,000</text></g><g class="tick" opacity="1" transform="translate(0,270.5)"><line stroke="currentColor" x2="-6"/><text fill="currentColor" x="-9" dy="0.32em">1,000,000</text></g><g class="tick" opacity="1" transform="translate(0,216.5)"><line stroke="currentColor" x2="-6"/><text fill="currentColor" x="-9" dy="0.32em">1,200,000</text></g><g class="tick" opacity="1" transform="translate(0,162.50000000000003)"><line stroke="currentColor" x2="-6"/><text fill="currentColor" x="-9" dy="0.32em">1,400,000</text></g><g class="tick" opacity="1" transform="translate(0,108.49999999999997)"><line stroke="currentColor" x2="-6"/><text fill="currentColor" x="-9" dy="0.32em">1,600,000</text></g><g class="tick" opacity="1" transform="translate(0,54.499999999999986)"><line stroke="currentColor" x2="-6"/><text fill="currentColor" x="-9" dy="0.32em">1,800,000</text></g><g class="tick" opacity="1" transform="translate(0,0.5)"><line stroke="currentColor" x2="-6"/><text fill="currentColor" x="-9" dy="0.32em">2,000,000</text></g><text x="4" text-anchor="start" dominant-baseline="hanging" style="font-family: Arial, sans-serif; font-size: 12px; fill: rgb(123, 123, 123); font-weight: bold;">value</text></g></g><g id="viz"><g id="Islande"><path d="M24,517.8894300000001C36,517.8894300000001,36,482.16114,48,482.16114C60,482.16114,60,428.7627,72,428.7627C84,428.7627,84,400.86872999999997,96,400.86872999999997C108,400.86872999999997,108,413.01521999999994,120,413.01521999999994C132,413.01521999999994,132,405.82944,144,405.82944C156,405.82944,156,392.13693,168,392.13693C180,392.13693,180,380.71808999999996,192,380.71808999999996C204,380.71808999999996,204,393.81039,216,393.81039C228,393.81039,228,372.03003,240,372.03003C252,372.03003,252,375.02837999999997,264,375.02837999999997C276,375.02837999999997,276,358.81083,288,358.81083C300,358.81083,300,365.54814,312,365.54814C324,365.54814,324,371.79891,336,371.79891C348,371.79891,348,351.87642000000005,360,351.87642000000005C372,351.87642000000005,372,494.80038,384,494.80038C396,494.80038,396,354.10311,408,354.10311C420,354.10311,420,284.73147,432,284.73147C444,284.73147,444,0.08396999999998656,456,0.08396999999998656C468,0.08396999999998656,468,34.429860000000005,480,34.429860000000005C492,34.429860000000005,492,248.71697999999998,503.99999999999994,248.71697999999998C516,248.71697999999998,516,277.33725,528,277.33725C540,277.33725,540,263.83347,552,263.83347C564,263.83347,564,317.53701,576,317.53701C588,317.53701,588,334.719,600,334.719C612,334.719,612,312.39648,624,312.39648C636,312.39648,636,326.19051,648,326.19051C660,326.19051,660,370.30554,672,370.30554C684,370.30554,684,406.44288,696,406.44288C708,406.44288,708,342.87894,720,342.87894" stroke="#ff7f0e" fill="none"/><text font-family="sans-serif" font-size="10" class="labels" x="456" y="0.08396999999998656" dx="0" dy="-4" text-anchor="middle">Islande</text></g><g id="Shetlands"><path d="M24,522.64737C36,522.64737,36,517.98177,48,517.98177C60,517.98177,60,515.38194,72,515.38194C84,515.38194,84,526.63068,96,526.63068C108,526.63068,108,521.73018,120,521.73018C132,521.73018,132,520.63371,144,520.63371C156,520.63371,156,514.06029,168,514.06029C180,514.06029,180,521.58762,192,521.58762C204,521.58762,204,523.7989200000001,216,523.7989200000001C228,523.7989200000001,228,521.7515099999999,240,521.7515099999999C252,521.7515099999999,252,517.66587,264,517.66587C276,517.66587,276,505.20051,288,505.20051C300,505.20051,300,509.39442,312,509.39442C324,509.39442,324,510.34023,336,510.34023C348,510.34023,348,499.42710000000005,360,499.42710000000005C372,499.42710000000005,372,480.16935,384,480.16935C396,480.16935,396,501.66918,408,501.66918C420,501.66918,420,501.32682,432,501.32682C444,501.32682,444,476.24571000000003,456,476.24571000000003C468,476.24571000000003,468,516.54213,480,516.54213C492,516.54213,492,524.31057,503.99999999999994,524.31057C516,524.31057,516,520.11666,528,520.11666C540,520.11666,540,520.31646,552,520.31646C564,520.31646,564,521.8246800000001,576,521.8246800000001C588,521.8246800000001,588,508.40838,600,508.40838C612,508.40838,612,518.8519799999999,624,518.8519799999999C636,518.8519799999999,636,523.70091,648,523.70091C660,523.70091,660,523.39446,672,523.39446C684,523.39446,684,515.06847,696,515.06847C708,515.06847,708,477.78740999999997,720,477.78740999999997" stroke="#2ca02c" fill="none"/><text font-family="sans-serif" font-size="10" class="labels" x="456" y="476.24571000000003" dx="0" dy="-4" text-anchor="middle">Shetlands</text></g><g id="Terre-Neuve"><path d="M24,540C36,540,36,540,48,540C60,540,60,540,72,540C84,540,84,540,96,540C108,540,108,540,120,540C132,540,132,540,144,540C156,540,156,540,168,540C180,540,180,520.40799,192,520.40799C204,520.40799,204,511.23339,216,511.23339C228,511.23339,228,527.71095,240,527.71095C252,527.71095,252,528.33681,264,528.33681C276,528.33681,276,523.08072,288,523.08072C300,523.08072,300,519.31665,312,519.31665C324,519.31665,324,514.67697,336,514.67697C348,514.67697,348,513.4077,360,513.4077C372,513.4077,372,540,384,540C396,540,396,540,408,540C420,540,420,540,432,540C444,540,444,540,456,540C468,540,468,540,480,540C492,540,492,540,503.99999999999994,540C516,540,516,531.4464,528,531.4464C540,531.4464,540,501.31548000000004,552,501.31548000000004C564,501.31548000000004,564,446.31971999999996,576,446.31971999999996C588,446.31971999999996,588,436.19228999999996,600,436.19228999999996C612,436.19228999999996,612,477.10188,624,477.10188C636,477.10188,636,482.77862999999996,648,482.77862999999996C660,482.77862999999996,660,509.12469000000004,672,509.12469000000004C684,509.12469000000004,684,506.51595,696,506.51595C708,506.51595,708,511.82225999999997,720,511.82225999999997" stroke="#d62728" fill="none"/><text font-family="sans-serif" font-size="10" class="labels" x="600" y="436.19228999999996" dx="0" dy="-4" text-anchor="middle">Terre-Neuve</text></g><g id="Dunkerque et mer du Nord"><path d="M24,443.934C36,443.934,36,410.24879999999996,48,410.24879999999996C60,410.24879999999996,60,442.35233999999997,72,442.35233999999997C84,442.35233999999997,84,484.64946000000003,96,484.64946000000003C108,484.64946000000003,108,439.11396,120,439.11396C132,439.11396,132,485.48726999999997,144,485.48726999999997C156,485.48726999999997,156,491.60358,168,491.60358C180,491.60358,180,493.80597,192,493.80597C204,493.80597,204,494.72288999999995,216,494.72288999999995C228,494.72288999999995,228,512.1978300000001,240,512.1978300000001C252,512.1978300000001,252,506.62152000000003,264,506.62152000000003C276,506.62152000000003,276,502.97166000000004,288,502.97166000000004C300,502.97166000000004,300,496.10745,312,496.10745C324,496.10745,324,495.342,336,495.342C348,495.342,348,487.22013,360,487.22013C372,487.22013,372,418.72734,384,418.72734C396,418.72734,396,484.83468,408,484.83468C420,484.83468,420,464.54310000000004,432,464.54310000000004C444,464.54310000000004,444,454.34304000000003,456,454.34304000000003C468,454.34304000000003,468,460.25631,480,460.25631C492,460.25631,492,460.98963,503.99999999999994,460.98963C516,460.98963,516,462.11391,528,462.11391C540,462.11391,540,461.73051,552,461.73051C564,461.73051,564,485.74215,576,485.74215C588,485.74215,588,511.96914,600,511.96914C612,511.96914,612,511.24877999999995,624,511.24877999999995C636,511.24877999999995,636,508.91625000000005,648,508.91625000000005C660,508.91625000000005,660,500.91587999999996,672,500.91587999999996C684,500.91587999999996,684,508.99644,696,508.99644C708,508.99644,708,486.3078,720,486.3078" stroke="#1f77b4" fill="none"/><text font-family="sans-serif" font-size="10" class="labels" x="48" y="410.24879999999996" dx="0" dy="-4" text-anchor="middle">Dunkerque et mer du Nord</text></g></g></g><text y="4" x="4" style="font-family: Arial, sans-serif; font-size: 12px; fill: black; font-weight: bold; dominant-baseline: hanging;"/></g><g id="grid"><rect x="0" y="0" width="805" height="600" fill="none" stroke="#ccc"/></g></g><g id="legend" transform="translate(805,30)"><g transform="translate(5,0)"><g class="legendColor" transform="translate(0,0)"><g class="legendCells" transform="translate(0,16)"><g class="cell" transform="translate(0, 0)"><rect class="swatch" height="15" width="15" style="fill: rgb(31, 119, 180);"/><text class="label" transform="translate( 20, 12.5)" font-family="&quot;Arial&quot;, sans-serif" font-size="10px"><tspan x="0" dy="0em">Dunkerque et mer du Nord</tspan></text></g><g class="cell" transform="translate(0, 21)"><rect class="swatch" height="15" width="15" style="fill: rgb(255, 127, 14);"/><text class="label" transform="translate( 20, 12.5)" font-family="&quot;Arial&quot;, sans-serif" font-size="10px"><tspan x="0" dy="0em">Islande</tspan></text></g><g class="cell" transform="translate(0, 42)"><rect class="swatch" height="15" width="15" style="fill: rgb(44, 160, 44);"/><text class="label" transform="translate( 20, 12.5)" font-family="&quot;Arial&quot;, sans-serif" font-size="10px"><tspan x="0" dy="0em">Shetlands</tspan></text></g><g class="cell" transform="translate(0, 63)"><rect class="swatch" height="15" width="15" style="fill: rgb(214, 39, 40);"/><text class="label" transform="translate( 20, 12.5)" font-family="&quot;Arial&quot;, sans-serif" font-size="10px"><tspan x="0" dy="0em">Terre-Neuve</tspan></text></g></g><text class="legendTitle" font-family="&quot;Arial&quot;, sans-serif" font-size="12px" font-weight="bold"><tspan x="0" dy="0em">column</tspan></text></g></g></g></svg>